<svg width="1373" height="935" viewBox="0 0 1373 935" fill="none" xmlns="http://www.w3.org/2000/svg">
<g opacity="0.05">
<path d="M5.70593 0.395355C74.8905 199.622 871.64 479.566 1149.33 455.573C1331.37 439.84 1328.31 244.311 1361.4 191.069C1406.48 118.463 1238.45 255.508 1044.89 282.584C814.884 314.754 210.941 260.926 316.333 422.197C408.361 562.941 708.647 594.887 701.161 695.393C694.3 786.292 441.749 855.808 230.83 900.135" stroke="black" stroke-miterlimit="10"/>
<path d="M24.1247 0.478088C101.429 191.403 873.047 460.744 1139.1 440.932C1313.4 427.939 1308.56 242.747 1338.31 193.479C1379.5 125.178 1218.02 256.374 1032.31 283.255C809.645 315.464 231.662 266.375 333.285 422.063C423.695 560.95 730.983 590.499 730.898 691.947C730.038 783.044 482.931 855.384 276.502 901.737" stroke="black" stroke-miterlimit="10"/>
<path d="M42.447 0.557526C127.871 183.181 874.295 441.919 1128.77 426.301C1295.33 416.049 1288.71 241.18 1315.12 195.886C1352.3 131.874 1197.49 257.237 1019.6 283.923C804.278 316.17 252.319 271.835 350.14 421.927C438.963 558.955 754.054 586.111 760.54 688.512C766.446 779.797 524.049 854.957 322.078 903.35" stroke="black" stroke-miterlimit="10"/>
<path d="M60.8981 0.654327C154.474 174.977 875.575 423.11 1118.56 411.673C1277.29 404.161 1268.99 239.617 1292.06 198.296C1325 138.546 1176.96 258.117 1006.93 284.594C798.911 316.976 272.976 277.297 366.964 421.806C454.233 556.963 776.806 581.697 790.15 685.051C802.088 776.522 565.199 854.519 367.623 904.952" stroke="black" stroke-miterlimit="10"/>
<path d="M79.2847 0.737793C180.98 166.843 876.695 404.287 1108.3 397.046C1259.15 392.274 1249.17 238.068 1268.75 200.72C1297.77 145.246 1156.46 259.012 994.25 285.265C793.576 317.742 293.665 282.761 383.819 421.673C469.502 554.972 799.206 577.296 819.792 681.634C837.858 773.261 606.317 854.124 413.199 906.568" stroke="black" stroke-miterlimit="10"/>
<path d="M97.6714 0.82016C207.519 158.652 877.751 385.463 1098.03 382.404C1240.93 380.372 1229.36 236.517 1245.59 203.129C1270.44 151.972 1135.93 259.933 981.574 285.936C788.209 318.52 314.386 288.223 400.707 421.553C484.835 552.966 821.767 572.88 849.466 678.187C873.628 770 647.435 853.741 458.808 908.184" stroke="black" stroke-miterlimit="10"/>
<path d="M116.091 0.916718C234.058 150.461 878.329 366.623 1087.8 367.777C1222.6 368.483 1209.48 234.911 1222.4 205.539C1242.98 158.67 1115.43 260.855 968.929 286.606C782.842 319.313 335.011 293.671 417.595 421.391C500.105 550.946 844.264 568.423 879.14 674.727C909.303 766.669 688.681 853.248 504.417 909.772" stroke="black" stroke-miterlimit="10"/>
<path d="M134.477 0.999237C260.563 142.256 878.906 347.755 1077.53 353.149C1204.18 356.594 1189.57 233.444 1199.25 207.962C1215.43 165.368 1094.93 261.818 956.22 287.346C777.283 320.201 356.274 299.137 434.418 421.354C516.012 548.971 866.663 564.077 908.749 671.378C944.913 763.532 729.799 852.922 549.961 911.471" stroke="black" stroke-miterlimit="10"/>
<path d="M152.865 1.08282C287.103 134.066 879.294 328.831 1067.27 338.508C1185.63 344.608 1169.62 231.964 1176.06 210.373C1187.5 172.093 1074.43 262.782 943.608 287.963C772.076 320.954 377.061 304.462 451.307 421.166C531.379 546.911 889.033 559.62 938.424 667.877C980.525 760.187 770.982 852.443 595.571 913.019" stroke="black" stroke-miterlimit="10"/>
<path d="M171.251 1.1792C313.609 125.875 879.425 309.849 1057 323.88C1166.99 332.578 1149.58 230.496 1152.9 212.783C1159.24 178.828 1053.93 263.718 930.931 288.633C766.708 321.816 397.717 309.98 468.225 421.101C546.775 544.976 911.401 555.273 968.129 664.501C1016.13 756.981 812.163 852.089 641.21 914.704" stroke="black" stroke-miterlimit="10"/>
<path d="M189.637 1.26154C340.147 117.684 879.365 290.755 1046.73 309.252C1148.25 320.464 1129.48 229.139 1129.74 215.122C1130.28 185.588 1033.46 264.681 918.254 289.234C761.309 322.622 418.47 315.359 485.081 420.842C562.14 542.831 933.675 550.717 997.771 660.929C1051.55 753.578 853.313 851.526 686.787 916.167" stroke="black" stroke-miterlimit="10"/>
<path d="M208.056 1.34457C366.654 109.493 879.115 271.535 1036.5 294.625C1129.42 308.253 1114.52 227.503 1106.56 217.616C1113.07 192.785 1013 265.798 905.61 289.975C755.941 323.595 439.158 320.905 501.969 420.778C577.474 540.909 955.916 546.384 1027.45 657.553C1087.13 750.386 894.495 851.172 732.396 917.853" stroke="black" stroke-miterlimit="10"/>
<path d="M226.442 1.44101C393.192 101.288 878.737 252.12 1026.23 279.983C1110.55 295.917 1095.08 225.983 1083.4 220.025C1086.44 199.543 992.558 266.929 892.932 290.646C750.572 324.541 459.847 326.354 518.76 420.644C592.742 538.903 978.06 541.98 1057.02 654.12C1122.52 747.137 935.581 850.748 777.907 919.468" stroke="black" stroke-miterlimit="10"/>
<path d="M244.83 1.5242C419.699 93.0979 878.394 232.496 1015.97 265.356C1091.72 283.442 1075.65 224.449 1060.21 222.477C1059.75 206.329 972.123 268.088 880.288 291.359C745.205 325.57 480.504 331.859 535.712 420.566C608.14 536.954 1000.3 537.634 1086.76 650.73C1158 743.93 976.827 850.408 823.58 921.112" stroke="black" stroke-miterlimit="10"/>
<path d="M263.216 1.604C446.237 84.9043 878.21 212.634 1005.7 250.725C1072.98 270.825 1056.22 222.926 1037.05 224.842C1033.06 213.043 951.75 269.202 867.515 291.984C739.644 326.567 501.065 337.276 552.471 420.387C623.345 534.918 1022.32 533.199 1116.31 647.239C1193.32 740.636 1017.88 849.912 869.061 922.683" stroke="black" stroke-miterlimit="10"/>
<path d="M281.604 1.70041C472.744 76.7133 878.476 192.568 995.434 236.083C1054.47 258.073 1036.79 221.392 1013.9 227.266C1006.41 219.801 931.41 270.403 854.967 292.656C734.692 327.668 521.787 342.739 569.455 420.254C638.711 532.926 1044.53 528.824 1146.08 643.807C1228.78 737.415 1059.13 849.488 914.766 924.3" stroke="black" stroke-miterlimit="10"/>
<path d="M299.99 1.78299C499.282 68.5224 879.38 172.2 985.168 221.455C1036.28 245.239 1017.35 219.872 990.711 229.675C979.714 226.558 911.164 271.646 842.29 293.326C729.546 328.823 542.411 348.201 586.247 420.133C653.884 530.934 1066.45 524.461 1175.65 640.36C1264.03 734.179 1100.21 849.064 960.278 925.901" stroke="black" stroke-miterlimit="10"/>
<path d="M318.408 1.86584C525.788 60.3177 881.146 151.767 974.933 206.828C1018.44 232.38 997.92 218.338 967.554 232.085C953.055 233.316 890.982 272.945 829.613 293.942C724.559 330.021 563.036 353.622 603.198 419.944C669.184 528.886 1088.59 520.057 1205.39 636.873C1299.42 730.902 1141.46 848.599 1005.95 927.462" stroke="black" stroke-miterlimit="10"/>
<path d="M336.796 1.96231C552.327 52.1268 883.776 131.31 964.668 192.2C1000.98 219.536 983.362 218.846 944.399 234.495C928.148 241.015 870.769 274.285 816.969 294.682C719.796 331.414 583.598 359.153 620.086 419.88C684.391 526.964 1110.58 515.764 1235.07 633.482C1334.74 727.749 1182.61 848.231 1051.56 929.134" stroke="black" stroke-miterlimit="10"/>
<path d="M355.277 2.04608C578.928 43.937 887.361 110.971 954.496 177.629C983.966 206.862 961.731 216.272 921.304 236.989C901.011 247.382 851.096 275.74 804.386 295.423C715.413 332.936 604.285 364.686 637.036 419.816C699.594 525.056 1132.66 511.5 1264.8 630.121C1370.1 724.625 1223.89 847.878 1097.23 930.806" stroke="black" stroke-miterlimit="10"/>
<path d="M373.57 2.12808C605.373 35.7456 891.396 90.8271 944.136 162.931C966.989 194.16 940.676 214.103 898.055 239.329C873.623 253.775 831.267 277.082 791.648 296.024C711.29 334.43 624.561 370.118 653.734 419.612C714.164 523.06 1154.07 507.19 1294.29 626.604C1404.91 721.415 1264.85 847.383 1142.65 932.351" stroke="black" stroke-miterlimit="10"/>
<path d="M391.956 2.22449C631.879 27.5546 895.968 70.9369 933.869 148.303C982.984 248.229 614.879 323.147 670.685 419.492C729.56 521.069 1176.44 502.802 1324.02 623.172C1440.55 718.167 1306.12 846.974 1188.32 933.968" stroke="black" stroke-miterlimit="10"/>
</g>
</svg>
