<svg width="52" height="52" viewBox="0 0 52 52" fill="none" xmlns="http://www.w3.org/2000/svg">
<path fill-rule="evenodd" clip-rule="evenodd" d="M1.15646 11.6471L10.3152 18.4885L10.3 31.3192L1.15646 22.8425V11.6471Z" fill="#30C6FD"/>
<path fill-rule="evenodd" clip-rule="evenodd" d="M1.15646 11.6471L13.7664 6.15332L23.3672 11.5933L10.3152 18.4886L1.15646 11.6471Z" fill="#17C1FF"/>
<path fill-rule="evenodd" clip-rule="evenodd" d="M12.9734 20.3779L26.076 30.3685L26.0693 45.8468L12.9734 33.7811V20.3779Z" fill="#30C6FD"/>
<path fill-rule="evenodd" clip-rule="evenodd" d="M26.0001 13.0443L39.1786 20.3779L26.076 30.3712L12.9734 20.3779L26.0001 13.0443Z" fill="#17C1FF"/>
<path fill-rule="evenodd" clip-rule="evenodd" d="M26.076 45.8468L39.146 33.7678L39.1786 20.3779L26.0693 30.3685L26.076 45.8468Z" fill="#13B7F3"/>
<path fill-rule="evenodd" clip-rule="evenodd" d="M28.6339 11.6471L38.1987 6.15332L50.8436 11.5525L41.6944 18.4886L28.6339 11.6471Z" fill="#17C1FF"/>
<path fill-rule="evenodd" clip-rule="evenodd" d="M41.6944 18.4886L41.6783 31.4496L50.8436 22.8586V11.5525L41.6944 18.4886Z" fill="#13B7F3"/>
</svg>
