<svg width="281" height="68" viewBox="0 0 281 68" fill="none" xmlns="http://www.w3.org/2000/svg">
<path d="M51.2462 13.9075H77.4387V22.1637H51.2462V13.9075Z" fill="#1B212C"/>
<path fill-rule="evenodd" clip-rule="evenodd" d="M68.8977 44.0854L60.072 43.8007V13.9075L68.8977 22.1637V44.0854Z" fill="url(#paint0_linear_2956_6050)"/>
<path fill-rule="evenodd" clip-rule="evenodd" d="M96.3915 13.5807C104.658 13.5807 111.359 20.346 111.359 28.6913C111.359 37.0366 104.658 43.8022 96.3915 43.8022C88.1255 43.8022 81.4245 37.0369 81.4245 28.6913C81.4245 20.3457 88.1255 13.5807 96.3915 13.5807Z" fill="url(#paint1_linear_2956_6050)" stroke="url(#paint2_linear_2956_6050)" stroke-width="4.43"/>
<path fill-rule="evenodd" clip-rule="evenodd" d="M117.012 14.1921H126.407L125.838 44.0854L117.297 43.8007L117.012 14.1921Z" fill="#1B212C"/>
<path fill-rule="evenodd" clip-rule="evenodd" d="M141.496 14.1921L129.539 34.121L134.094 41.8078L150.607 14.1921H141.496Z" fill="#161C26"/>
<path fill-rule="evenodd" clip-rule="evenodd" d="M117.012 14.1922L126.123 13.9075L138.365 34.121L134.094 41.5231L117.012 14.1922Z" fill="url(#paint3_linear_2956_6050)"/>
<path fill-rule="evenodd" clip-rule="evenodd" d="M150.607 14.1921H141.212L142.066 44.0854H150.607V14.1921Z" fill="url(#paint4_linear_2956_6050)"/>
<path fill-rule="evenodd" clip-rule="evenodd" d="M157.155 14.1921H165.981V44.0854H157.44L157.155 14.1921Z" fill="#161C26"/>
<path fill-rule="evenodd" clip-rule="evenodd" d="M157.155 14.1921L165.981 22.7331H157.44L157.155 14.1921Z" fill="url(#paint5_linear_2956_6050)"/>
<path fill-rule="evenodd" clip-rule="evenodd" d="M196.728 44.0854V36.3986L172.244 36.6833L180.5 44.0854H196.728Z" fill="url(#paint6_linear_2956_6050)"/>
<path fill-rule="evenodd" clip-rule="evenodd" d="M172.244 14.1921H180.785V44.0854L172.244 36.6832V14.1921Z" fill="url(#paint7_linear_2956_6050)"/>
<path fill-rule="evenodd" clip-rule="evenodd" d="M200.43 21.8181L209.144 13.6846V36.0521H200.43" fill="url(#paint8_linear_2956_6050)"/>
<path fill-rule="evenodd" clip-rule="evenodd" d="M208.621 44.3354L200.714 35.8639H222.457V44.3354" fill="url(#paint9_linear_2956_6050)"/>
<path fill-rule="evenodd" clip-rule="evenodd" d="M222.921 13.9075L230.893 22.4484H208.971V13.9075" fill="url(#paint10_linear_2956_6050)"/>
<path fill-rule="evenodd" clip-rule="evenodd" d="M230.893 36.3985L222.352 44.3701V22.4484H230.893" fill="url(#paint11_linear_2956_6050)"/>
<defs>
<linearGradient id="paint0_linear_2956_6050" x1="64.4848" y1="44.0854" x2="64.4848" y2="13.9075" gradientUnits="userSpaceOnUse">
<stop stop-color="#171D28"/>
<stop offset="1" stop-color="#898D96"/>
</linearGradient>
<linearGradient id="paint1_linear_2956_6050" x1="81.4245" y1="18.5931" x2="111.362" y2="38.7864" gradientUnits="userSpaceOnUse">
<stop stop-color="#252B36"/>
<stop offset="1" stop-color="#828790"/>
</linearGradient>
<linearGradient id="paint2_linear_2956_6050" x1="96.3935" y1="43.8008" x2="96.3935" y2="13.5784" gradientUnits="userSpaceOnUse">
<stop/>
<stop offset="1" stop-color="#828790"/>
</linearGradient>
<linearGradient id="paint3_linear_2956_6050" x1="127.688" y1="41.5231" x2="127.688" y2="13.9075" gradientUnits="userSpaceOnUse">
<stop stop-color="#161C26"/>
<stop offset="1" stop-color="#858A93"/>
</linearGradient>
<linearGradient id="paint4_linear_2956_6050" x1="141.212" y1="16.2326" x2="150.607" y2="42.045" gradientUnits="userSpaceOnUse">
<stop stop-color="#252B36"/>
<stop offset="1" stop-color="#828790"/>
</linearGradient>
<linearGradient id="paint5_linear_2956_6050" x1="159.523" y1="22.7331" x2="163.613" y2="14.1921" gradientUnits="userSpaceOnUse">
<stop/>
<stop offset="1" stop-color="#828790"/>
</linearGradient>
<linearGradient id="paint6_linear_2956_6050" x1="185.885" y1="44.0854" x2="183.087" y2="36.3985" gradientUnits="userSpaceOnUse">
<stop stop-color="#252B36"/>
<stop offset="1" stop-color="#828790"/>
</linearGradient>
<linearGradient id="paint7_linear_2956_6050" x1="172.244" y1="17.4058" x2="180.785" y2="40.8718" gradientUnits="userSpaceOnUse">
<stop stop-color="#252B36"/>
<stop offset="1" stop-color="#828790"/>
</linearGradient>
<linearGradient id="paint8_linear_2956_6050" x1="208.86" y1="36.0515" x2="200.719" y2="13.6851" gradientUnits="userSpaceOnUse">
<stop stop-color="#252B36"/>
<stop offset="1" stop-color="#828790"/>
</linearGradient>
<linearGradient id="paint9_linear_2956_6050" x1="213.128" y1="44.3345" x2="210.045" y2="35.8647" gradientUnits="userSpaceOnUse">
<stop stop-color="#252B36"/>
<stop offset="1" stop-color="#828790"/>
</linearGradient>
<linearGradient id="paint10_linear_2956_6050" x1="211.176" y1="22.4484" x2="228.687" y2="13.9073" gradientUnits="userSpaceOnUse">
<stop stop-color="#252B36"/>
<stop offset="1" stop-color="#828790"/>
</linearGradient>
<linearGradient id="paint11_linear_2956_6050" x1="230.612" y1="44.3701" x2="222.633" y2="22.4483" gradientUnits="userSpaceOnUse">
<stop stop-color="#252B36"/>
<stop offset="1" stop-color="#828790"/>
</linearGradient>
</defs>
</svg>
