<svg width="468" height="487" viewBox="0 0 468 487" fill="none" xmlns="http://www.w3.org/2000/svg">
<path d="M192.166 169.978C192.166 169.978 177.537 158.888 175.392 140.849C174.54 133.692 174.981 123.476 183.902 121.96C185.959 121.611 187.89 121.91 189.938 122.06C190.988 122.137 190.712 122.191 191.166 121.599C191.633 120.991 191.898 120.063 192.274 119.386C193.717 116.786 195.515 114.38 197.556 112.221C204.617 104.75 214.418 100.78 224.553 99.8564C224.756 99.838 224.959 99.8205 225.162 99.8043C252.148 97.6457 259.601 107.403 259.601 107.403C259.601 107.403 262.343 110.779 259.601 115.592C259.697 115.424 263.477 118.528 263.699 118.732C265.497 120.382 266.573 122.27 267.059 124.679C268.841 133.503 266.322 144.944 257.061 148.424C254.383 149.43 251.484 149.741 248.639 149.679C226.492 149.195 215.554 138.751 208.637 145.368C201.719 151.985 210.04 167.725 210.04 167.725C210.04 167.725 209.483 173.874 202.393 168.644C195.303 163.414 192.239 164.912 192.166 169.978Z" fill="#737373"/>
<path d="M345.622 117.797C345.429 117.781 345.262 117.805 345.113 117.852C344.555 117.92 344.068 118.411 344.095 119.01C344.537 120.353 344.63 121.778 344.754 123.194C345.237 128.153 345.989 133.068 346.505 138.025C346.578 139.127 346.607 140.229 346.633 141.332C346.702 142.262 346.428 143.667 347.595 143.983C347.696 144.01 347.797 144.022 347.897 144.022C348.361 144.022 348.807 143.761 349.187 143.51C350.681 142.681 351.93 141.533 353.238 140.459C353.611 140.795 354.002 141.119 354.336 141.48C356.048 143.11 357.55 144.875 359.339 146.457C362.313 148.803 364.738 151.726 367.345 154.451C367.659 154.708 367.995 154.819 368.345 154.819C370.266 154.819 372.606 151.482 373.857 150.477C374.668 149.713 375.514 148.993 376.376 148.29C376.787 147.94 376.854 147.489 376.72 147.104C376.731 147.08 376.741 147.054 376.75 147.029C377.321 146.695 377.626 145.883 377.018 145.241C374.782 142.834 372.558 140.421 370.313 138.022C369.516 137.218 368.679 136.443 367.948 135.575C367.585 135.075 366.837 135.002 366.359 135.369C365.582 136.017 365.971 136.76 366.512 137.387C366.642 137.628 366.846 137.854 367.122 138.03C369.816 140.743 371.644 144.259 374.381 146.984C372.299 148.664 370.648 150.748 368.535 152.408C366.929 150.745 365.388 149.013 363.779 147.351C362.16 145.772 360.309 144.447 358.769 142.781C357.452 141.36 356.009 139.948 354.581 138.596C354.545 138.415 354.471 138.241 354.351 138.097C353.943 137.609 353.247 137.581 352.759 137.956C352.741 137.969 352.724 137.983 352.706 137.996C352.665 138.021 352.628 138.052 352.59 138.082C351.315 139.02 350.223 140.183 348.886 141.036C348.882 137.992 348.482 134.972 348.047 131.963C347.512 128.254 347.257 124.501 346.754 120.79C352.564 123.881 358.819 126.098 365.049 128.191C364.065 129.178 363.083 130.164 362.038 131.091C361.171 131.689 361.097 133.004 362.224 133.331C362.309 133.351 362.397 133.361 362.484 133.361C362.808 133.361 363.128 133.225 363.342 132.986C363.513 132.848 363.68 132.705 363.845 132.559C364.686 132.235 365.492 131.104 366.19 130.679C367.183 129.732 370.13 128.175 368.202 126.75C363.459 125.444 358.827 123.648 354.254 121.817C352.048 120.869 349.839 119.926 347.731 118.771C347.06 118.397 346.393 117.921 345.622 117.797Z" fill="#404040"/>
<path d="M333.333 136.101C333.327 135.505 332.808 134.948 332.191 134.979C327.177 135.242 322.163 135.564 317.146 135.703C315.345 135.708 313.552 135.569 311.753 135.569C311.197 135.579 310.616 135.577 310.24 136.057C309.741 136.715 310.004 137.798 310.834 138.01C310.928 138.035 311.023 138.048 311.119 138.048C311.356 138.048 311.591 137.971 311.78 137.831C316.214 138.063 320.627 137.866 325.058 137.63C327.444 137.519 329.826 137.363 332.211 137.241C332.827 137.21 333.338 136.737 333.333 136.101H333.333Z" fill="#404040"/>
<path d="M324.039 144.246C322.627 144.255 321.209 144.306 319.8 144.385C317.012 144.6 314.22 144.962 311.43 144.88C310.343 145.158 310.363 146.802 311.448 147.067C312.023 147.111 312.599 147.129 313.174 147.129C314.857 147.129 316.539 146.971 318.223 146.811C320.164 146.63 322.106 146.446 324.059 146.508C324.675 146.504 325.185 145.982 325.179 145.368C325.174 144.75 324.655 144.242 324.039 144.246L324.039 144.246Z" fill="#404040"/>
<path d="M323.756 159.016C319.552 159.071 315.349 159.133 311.145 159.192C311.12 159.19 311.098 159.19 311.074 159.192C311.036 159.194 311.001 159.192 310.965 159.194C310.349 159.228 309.841 159.705 309.847 160.339C309.856 160.948 310.369 161.456 310.979 161.456H310.994C311.332 161.452 311.67 161.447 312.008 161.441C316.399 161.384 320.791 161.319 325.18 161.258C329.845 161.194 334.511 161.13 339.176 161.063C342.883 161.012 346.592 160.962 350.299 160.908C350.915 160.9 351.423 160.38 351.417 159.764C351.408 159.148 350.886 158.637 350.27 158.646C350.125 158.648 349.979 158.65 349.835 158.653C345.762 158.708 341.688 158.763 337.615 158.823C332.996 158.889 328.375 158.953 323.756 159.015L323.756 159.016Z" fill="#404040"/>
<path d="M310.896 170.5C311.016 170.5 311.137 170.502 311.259 170.502C311.278 170.502 311.298 170.5 311.321 170.5C312.123 170.502 312.924 170.509 313.726 170.511C318.242 170.528 322.754 170.548 327.267 170.568C331.8 170.588 336.333 170.608 340.866 170.628C345.54 170.647 350.215 170.665 354.887 170.687C359.404 170.707 363.922 170.725 368.439 170.744C372.071 170.76 375.702 170.749 379.336 170.788C379.343 170.791 379.347 170.791 379.354 170.791H379.387C380.001 170.791 380.525 170.307 380.54 169.684C380.553 169.077 380.052 168.531 379.434 168.529H379.423C378.687 168.52 377.954 168.522 377.218 168.52C373.269 168.503 369.319 168.487 365.369 168.469C360.764 168.45 356.158 168.425 351.552 168.41C346.871 168.395 342.193 168.368 337.514 168.35C333.089 168.335 328.664 168.315 324.24 168.295C319.809 168.275 315.377 168.238 310.948 168.238C310.332 168.238 309.806 168.717 309.791 169.342C309.777 169.952 310.279 170.495 310.897 170.5H310.896Z" fill="#404040"/>
<path d="M327.851 180.356C326.174 180.356 324.498 180.356 322.823 180.358C318.944 180.361 315.065 180.361 311.187 180.361C310.57 180.363 310.049 180.856 310.042 181.478C310.036 182.09 310.544 182.622 311.16 182.622H311.763C311.766 182.622 311.77 182.62 311.772 182.62H317.783C321.129 182.62 324.478 182.618 327.825 182.618C328.441 182.618 328.963 182.121 328.969 181.5C328.976 180.888 328.468 180.356 327.852 180.356L327.851 180.356Z" fill="#404040"/>
<path d="M343.225 179.305C342.801 179.336 342.377 179.374 341.955 179.407L341.846 179.413C340.927 179.482 340.002 179.537 339.079 179.59C338.073 179.649 337.062 179.716 336.052 179.722C335.436 179.727 334.925 180.246 334.932 180.862C334.936 181.419 335.365 181.907 335.917 181.975C335.939 181.98 335.963 181.982 335.986 181.986C336.12 182.015 336.255 182.046 336.39 182.081C336.483 182.108 336.578 182.119 336.671 182.119C336.883 182.119 337.086 182.059 337.263 181.953C337.905 181.924 338.546 181.885 339.187 181.847C340.185 181.79 341.182 181.728 342.182 181.652C342.392 181.635 342.673 181.606 342.951 181.586C343.048 181.579 343.146 181.573 343.245 181.566C343.859 181.522 344.372 181.071 344.365 180.424C344.361 179.839 343.839 179.26 343.225 179.304L343.225 179.305Z" fill="#404040"/>
<path d="M384.386 178.884H384.282C381.574 178.893 378.864 178.906 376.153 178.917C372.091 178.935 368.026 178.948 363.961 178.966C359.928 178.983 355.896 179.014 351.863 179.014C351.246 179.014 350.727 179.514 350.721 180.135C350.714 180.746 351.222 181.277 351.838 181.277C355.318 181.277 358.797 181.248 362.276 181.235C366.416 181.219 370.555 181.201 374.697 181.184C377.918 181.173 381.141 181.157 384.362 181.146C384.978 181.142 385.497 180.651 385.504 180.026C385.51 179.416 385.002 178.882 384.386 178.884Z" fill="#404040"/>
<path d="M361.389 109.296C362.966 109.185 364.546 109.061 366.13 109.044C366.746 109.035 367.257 108.52 367.25 107.902C367.246 107.287 366.726 106.773 366.11 106.781C364.241 106.804 362.377 106.969 360.513 107.091C358.968 107.185 357.422 107.203 355.88 107.327C355.034 107.426 353.779 107.256 353.497 108.299C353.302 108.904 353.742 109.569 354.343 109.708C356.667 109.551 358.925 109.412 361.39 109.295L361.389 109.296Z" fill="#404040"/>
<path d="M385.781 113.714C377.98 113.859 370.212 114.624 362.416 114.871C360.748 114.915 359.08 114.904 357.412 114.9C357.103 114.942 356.73 114.915 356.345 114.891C355.349 114.827 354.275 114.761 354.059 115.874C353.975 116.517 354.49 117.135 355.137 117.157C356.049 117.179 356.959 117.189 357.871 117.189C367.189 117.189 376.482 116.159 385.798 115.975C387.296 115.927 387.249 113.733 385.78 113.713L385.781 113.714Z" fill="#404040"/>
<path d="M407.293 232.28C404.249 226.369 400.602 223.232 394.07 226.795C390.931 228.472 388.788 231.368 386.137 233.656C385.079 234.52 383.641 235.609 382.227 234.946C381.657 234.304 381.467 233.391 381.003 232.667C379.855 230.482 377.016 229.225 374.626 229.764C370.849 231.027 369.518 237.195 368.264 240.588C367.427 242.51 366.639 244.808 365.108 246.314C364.301 246.915 363.432 247.315 362.431 247.779C361.135 248.252 359.836 248.713 358.526 249.148C358.422 249.159 358.324 249.19 358.23 249.229C353.508 250.286 348.712 253.669 344.825 255.632C339.627 258.534 334.335 261.271 328.995 263.9C323.285 266.113 318.862 269.268 313.07 265.188C312.947 265.105 312.818 265.023 312.683 264.95C310.547 262.925 309.385 259.97 308.591 257.172C307.493 253.154 306.234 249.193 304.884 245.254C303.407 240.812 301.865 236.513 299.28 232.548C288.933 214.967 269.379 207.683 249.803 206.782C249.376 206.807 248.384 206.758 247.13 206.709C244.481 206.604 240.655 206.501 238.487 207.107C238.237 205.18 237.988 203.253 237.774 201.322C238.491 200.898 239.191 200.446 239.867 199.962C244.535 196.309 247.247 190.508 248.239 184.755C249.014 180.761 248.948 176.681 249.262 172.643C249.43 171.136 250.457 169.986 251.027 168.634C251.378 167.686 251.619 166.643 251.612 165.625C251.369 161.651 250.693 157.693 249.841 153.805C249.673 152.894 249.547 151.976 249.5 151.05C249.549 150.893 249.563 150.727 249.543 150.564C251.043 150.61 252.486 149.858 254.041 150.016C261.571 150.782 271.296 129.026 266.508 123.754C264.007 121.001 262.17 117.565 258.76 116.08C259.939 114.275 261.171 112.249 260.85 110.116C260.693 109.079 260.173 108.127 259.538 107.291C256.522 103.323 250.76 101.305 246.014 100.452C236.464 98.7355 226.499 99.0074 217.044 101.199C206.956 103.733 194.092 111.877 190.878 122.298C189.166 121.335 187.246 120.597 185.26 120.93C182.338 121.413 179.581 122.814 177.533 124.965C173.279 129.176 174.478 135.544 175.39 140.848C176.009 144.444 176.511 148.089 177.758 151.535C178.576 153.78 179.769 155.865 180.997 157.906C182.884 160.953 184.763 164.107 187.337 166.63C188.817 167.903 190.427 169.071 192.165 169.978C192.165 169.998 192.166 170.022 192.165 170.041C192.444 174.391 194.957 179.142 199.298 180.547C200.091 183.318 199.857 186.262 200.056 189.112C200.155 192.317 200.204 195.533 199.806 198.719C199.673 200.558 199.394 202.386 199.128 204.214C194.709 204.505 190.423 205.777 186.105 206.697C176.936 208.948 168.027 212.241 159.701 216.699C158.583 217.25 157.479 217.832 156.381 218.423C156.335 218.44 156.288 218.454 156.241 218.477C151.77 220.611 147.546 223.22 143.369 225.862C137.895 229.178 132.721 233.24 128.043 237.643C124.42 240.949 121.214 244.685 118.427 248.719C114.179 254.431 110.697 260.683 108.095 267.31C107.625 268.383 107.176 269.463 106.735 270.548C106.467 271.158 106.008 272.011 106.065 272.693C105.83 273.406 105.601 274.12 105.374 274.834C104.486 277.571 103.691 280.337 103.249 283.185C100.841 298.69 101.409 315.27 108.617 329.496C113.072 337.955 119.934 345.033 127.736 350.471C127.812 350.503 127.886 350.524 127.959 350.542C130.293 352.198 132.734 353.722 135.339 354.914C136.538 355.44 137.753 355.931 138.977 356.405C140.515 365.405 134.63 376.516 132.165 385.284C130.879 389.149 129.664 393.04 128.405 396.914C126.95 401.009 125.863 405.317 126.094 409.695C126.401 415.688 130.875 419.673 136.059 421.94C138.131 422.983 140.301 423.685 142.526 424.214C139.146 430.039 136.892 436.433 134.838 442.833C132.389 450.037 130.621 457.55 129.077 465.026C128.174 469.116 127.579 473.274 127.285 477.457C127.276 478.017 127.071 478.729 127.152 479.32L127.185 479.319C127.147 479.836 127.024 480.487 127.175 480.948C127.13 481.705 127.105 482.467 127.11 483.223C127.11 483.241 127.114 483.257 127.114 483.275H119.689C119.212 483.275 118.827 483.708 118.839 484.173C118.93 485.239 120.083 485.008 120.871 485.024C124.579 485.024 128.286 485.024 131.993 485.024H350.633C351.109 485.024 351.495 484.592 351.483 484.125C351.47 483.639 351.059 483.275 350.585 483.275H308.921C308.904 482.658 308.741 481.963 308.749 481.504C308.687 480.068 308.726 478.631 308.637 477.198C308.602 476.755 308.57 476.312 308.536 475.868L308.628 475.865C308.212 471.23 307.677 466.521 307.044 461.904C306.412 456.06 305.236 450.321 304.06 444.569C302.367 436.113 300.665 427.383 295.763 420.133C296.549 419.616 297.32 419.077 298.022 418.45C300.147 416.636 301.713 414.248 302.884 411.73C305.977 404.409 305.422 397.857 303.275 390.402C301.459 382.553 299.116 374.89 296.135 367.388C294.24 362.509 291.49 357.768 290.844 352.523C297.918 352.395 304.909 350.825 311.689 348.846C320.395 346.794 328.846 343.651 336.881 339.74C337.126 339.606 337.375 339.471 337.627 339.329C337.605 339.298 337.583 339.266 337.561 339.232C337.545 339.207 337.532 339.182 337.516 339.157C340.367 337.53 342.984 335.523 345.643 333.606C348.261 331.613 350.912 329.665 353.366 327.469C355.177 326.026 356.88 324.468 358.492 322.819C361.487 319.935 364.228 316.756 367.002 313.693C370.947 309.317 374.758 304.475 376.196 298.649C377.137 295.309 378.195 291.921 377.835 288.402C377.745 287.299 377.663 286.197 377.489 285.106C377.478 285.045 377.458 284.989 377.436 284.933C376.972 281.334 375.858 277.816 374.91 274.323C374.906 274.305 374.901 274.287 374.896 274.27C375.453 273.528 376.024 272.793 376.755 272.209C379.486 269.66 382.868 268.297 386.4 267.266C392.568 265.087 399.298 263.738 404.489 259.536C413.005 252.984 411.764 240.916 407.293 232.279L407.293 232.28ZM193.734 163.425C193.003 164.324 192.639 165.419 192.566 166.549C192.347 166.76 192.222 167.061 192.158 167.412C187.311 164.49 184.427 159.328 181.636 154.512C179.231 150.434 178.458 145.696 177.726 141.088C177.223 138.181 176.759 135.455 176.757 132.455C176.702 127.169 182.414 122.426 187.565 123.288C189.496 123.953 191.23 125.088 192.852 126.312C193.34 126.688 194.082 126.533 194.429 126.045C195.09 125.034 193.987 124.195 192.89 123.525C192.929 123.324 192.971 123.122 193.04 122.928C195.333 115.811 201.709 110.869 207.971 107.264C216.776 102.167 227.022 101.467 237.046 101.661C243.841 102.114 254.274 103.369 258.319 109.501C259.695 111.854 256.738 113.727 256.662 116C256.83 118.987 263.23 120.023 264.465 124.62C267.396 131.289 263.513 141.457 257.866 145.67C254.321 148.457 249.523 148.833 245.273 147.702C240.539 146.6 235.794 145.531 231.12 144.207C226.364 142.822 221.444 141.799 216.465 141.94C204.417 142.212 201.559 153.202 206.655 162.65C207.432 164.225 208.448 165.809 208.528 167.609C208.572 169.188 207.256 169.557 206.072 168.762C203.335 167.061 201.753 163.891 198.722 162.617C197.085 161.857 194.923 161.903 193.734 163.425L193.734 163.425ZM199.253 178.149C196.437 176.613 194.879 173.61 194.478 170.49C194.79 170.282 195.009 169.929 194.996 169.523L194.995 169.514C195.057 169.342 195.082 169.156 195.048 168.966C194.801 167.55 194.516 165.884 195.583 164.729C195.565 164.756 195.558 164.765 195.55 164.771C195.53 164.796 195.512 164.818 195.492 164.842C195.534 164.798 195.576 164.754 195.616 164.71C195.689 164.643 195.769 164.582 195.851 164.529C195.947 164.518 196.121 164.435 196.269 164.401C200.238 164.494 202.133 169.852 205.831 171.164C206.282 171.358 206.752 171.448 207.215 171.448C208.974 171.448 210.633 170.15 210.735 168.253C211.008 166.24 210.028 164.336 209.166 162.582C206.668 158.107 204.885 151.679 208.654 147.378C215.243 140.099 231.236 147.133 239.476 148.675C242.031 149.231 244.63 149.993 247.241 150.36C247.207 150.504 247.198 150.661 247.227 150.831C247.37 154.346 248.557 157.706 248.866 161.204C249.054 162.985 249.509 164.686 249.266 166.515C248.955 168.565 247.265 170.076 247.053 172.174C246.609 177.315 246.757 182.57 245.308 187.582C243.677 192.4 240.992 197.147 236.311 199.567C233.728 200.916 230.996 202.105 228.078 202.445C222.191 203.017 215.705 201.382 211.742 196.774C210.763 195.661 209.075 197.077 210.005 198.226C213.372 202.18 218.585 204.34 223.701 204.738C224.347 204.8 224.992 204.83 225.636 204.83C229.098 204.83 232.507 203.954 235.634 202.466C235.94 205.134 236.305 207.796 236.637 210.461C236.621 210.584 236.6 210.702 236.565 210.81C234.129 217.223 228.306 223.969 222.096 227.022C219.701 228.105 217.133 227.347 214.756 226.618C213.627 226.264 212.549 225.793 211.541 225.171C206.98 222.1 202.252 217.925 200.714 212.471C200.772 212.333 200.805 212.174 200.804 211.995C200.655 209.483 201.009 206.992 201.382 204.517C202.544 197.535 202.535 190.455 202.069 183.41C201.932 181.921 201.832 180.302 201.035 178.999C200.615 178.431 199.849 178.422 199.252 178.151L199.253 178.149ZM297.578 428.346C299.776 434.535 301.069 440.986 302.331 447.43C304.337 456.841 305.456 466.377 306.36 475.952H306.372C306.393 476.223 306.414 476.494 306.436 476.765C306.656 478.934 306.487 481.111 306.737 483.275H129.285C129.29 483.221 129.292 483.165 129.288 483.106C129.353 481.331 129.398 479.593 129.58 477.819C129.596 477.677 129.584 477.548 129.551 477.435C129.615 476.711 129.682 475.988 129.74 475.266C129.983 472.408 130.479 469.578 131.022 466.768C132.726 458.418 134.666 450.127 137.472 442.068C139.419 436.078 141.612 430.132 144.854 424.709C146.011 424.929 147.179 425.12 148.352 425.302C148.821 425.537 149.46 425.565 150.096 425.565C150.253 425.581 150.401 425.59 150.541 425.59C150.681 425.59 150.809 425.58 150.932 425.565C151.218 425.57 151.488 425.586 151.719 425.634C155.169 425.935 158.624 426.191 162.046 426.743C166.521 427.371 170.939 428.358 175.443 428.788C180.239 429.263 185.064 429.606 189.881 429.712C193.469 429.736 197.054 429.911 200.64 429.995C204.037 429.985 207.372 429.976 210.737 430.195C210.785 430.238 210.829 430.284 210.886 430.32C213.548 430.762 216.159 430.908 218.989 430.961C226.181 431.239 233.363 431.694 240.553 432.03C240.944 432.036 241.334 432.039 241.724 432.039C249.198 432.039 256.652 430.923 264.041 429.829C266.458 429.452 268.972 428.526 271.384 427.985C273.668 427.468 275.966 426.991 278.166 426.162C280.393 425.374 282.595 424.506 284.857 423.81C287.796 423.176 290.78 422.516 293.548 421.288C293.58 421.291 293.612 421.3 293.644 421.3C293.706 421.3 293.767 421.284 293.828 421.274C295.136 423.592 296.668 425.825 297.578 428.344L297.578 428.346ZM375.393 287.154C375.388 287.414 375.409 287.644 375.53 287.876C375.63 289.034 375.676 290.196 375.575 291.357C374.725 296.444 373.38 301.624 370.369 305.897C368.52 308.569 366.408 311.035 364.212 313.425C362.828 314.996 361.42 316.552 359.974 318.071C359.86 318.116 359.752 318.176 359.659 318.264C358.969 319.041 358.26 319.798 357.537 320.542C356.952 321.116 356.366 321.688 355.765 322.245C355.778 322.252 355.787 322.263 355.799 322.27C350.627 327.255 344.78 331.539 338.886 335.653C337.395 336.661 335.957 337.5 334.3 338.295C333.819 338.505 333.191 338.774 332.82 339.169C332.596 339.278 332.37 339.385 332.149 339.495C327.377 341.611 322.495 343.365 317.507 344.953C314.163 346.047 310.688 346.654 307.335 347.714C301.876 349.171 296.194 350.194 290.511 350.265C290.18 349.983 289.71 349.862 289.265 350.068C289.179 350.122 289.104 350.189 289.033 350.261C286.512 350.217 283.995 349.982 281.5 349.495C280.153 349.23 278.757 348.993 277.346 348.673C273.902 347.769 270.389 346.98 267.16 345.448C266.051 344.971 264.929 344.171 263.718 343.978C262.658 343.978 262.219 345.392 263.056 346.015C265.033 346.874 266.941 347.941 268.991 348.657C271.244 349.421 273.55 350.024 275.848 350.638C279.49 351.46 283.133 352.229 286.888 352.441H286.87C287.417 352.476 287.964 352.499 288.51 352.514C288.811 357.389 293.929 367.485 294.809 370.144C296.974 376.051 298.905 382.055 300.42 388.174C302.528 396.468 304.319 402.601 300.758 410.946C299.545 413.516 297.845 415.879 295.525 417.558C295.367 417.712 295.145 417.864 294.893 418.019C294.289 418.248 293.669 418.81 293.093 419.016C290.889 419.952 288.624 420.794 286.248 421.176C282.609 421.836 279.24 423.526 275.717 424.611C271.816 425.541 267.952 426.584 264.06 427.533C257.378 428.545 250.833 429.53 244.042 429.733C239.184 429.954 234.34 429.351 229.489 429.183C224.601 428.831 219.67 428.913 214.793 428.472C214.651 428.36 214.474 428.274 214.253 428.238C213.285 428.149 212.523 428.081 211.522 428.001C208.988 427.738 206.3 427.74 203.66 427.743C202.68 427.745 201.708 427.745 200.751 427.734C195.935 427.566 191.12 427.52 186.308 427.341C182.043 427.036 177.76 426.875 173.516 426.3C166.363 425.156 159.234 423.858 151.994 423.389C151.697 423.154 151.253 423.071 150.711 423.295C145.758 422.76 140.687 421.863 136.24 419.504C132.566 417.803 129.158 414.905 128.486 410.712C127.706 405.223 129.847 399.828 131.492 394.677C133.011 389.936 134.539 385.204 136.129 380.485L136.127 380.491L136.137 380.462L136.129 380.485L136.131 380.479C136.135 380.467 136.139 380.455 136.143 380.443C137.665 375.912 139.539 371.427 140.523 366.721C141.194 363.644 141.872 360.487 141.402 357.328C141.4 357.314 141.398 357.299 141.396 357.285C144.953 358.52 148.595 359.521 152.273 360.282C158.217 361.366 164.231 361.679 170.266 361.679C170.476 361.679 170.688 361.679 170.899 361.678C175.249 361.552 179.609 361.519 183.923 360.934C183.971 360.925 184.012 360.908 184.056 360.895C189.673 360.256 194.883 357.753 199.869 355.16C206.428 352.081 212.423 347.966 217.959 343.309C220.711 341.036 223.557 338.818 225.992 336.2C226.155 336.078 226.309 335.944 226.452 335.81C227.355 334.984 228.1 334.012 228.868 333.066C231.038 330.137 234.084 327.648 235.427 324.164C235.461 324.093 235.49 324.021 235.521 323.949C235.929 324.096 236.408 324.16 236.802 324.217C239.338 324.71 241.946 324.591 244.52 324.631C244.774 324.636 245.031 324.638 245.295 324.638C246.85 324.638 248.584 324.546 250.409 324.349C250.438 324.426 250.471 324.503 250.508 324.576C250.978 325.669 251.467 326.754 251.964 327.836C252.653 329.29 253.23 330.854 254.261 332.102C254.592 332.345 254.969 332.44 255.369 332.44C256.538 332.44 257.909 331.634 258.928 331.362C261.179 330.554 263.574 330.187 265.774 329.217C268.001 328.265 270.137 327.125 272.33 326.102C274.354 325.181 276.331 324.161 278.074 322.767C278.168 322.699 278.239 322.615 278.301 322.523C278.918 322.378 279.429 321.752 279.11 320.974C277.773 317.89 277.146 314.548 275.876 311.431C275.502 310.421 275.061 309.442 274.65 308.448C274.638 308.35 274.606 308.256 274.567 308.166C274.567 308.155 274.569 308.145 274.569 308.133C275.031 303.342 273.701 298.672 272.433 294.104C271.121 290.032 269.306 285.846 264.826 284.589C264.821 284.45 264.791 284.302 264.726 284.149C264.509 283.731 264.359 283.285 264.18 282.852C261.978 277.954 260.275 272.845 257.984 267.985C257.853 267.733 257.738 267.444 257.577 267.21C257.345 266.822 256.953 266.668 256.569 266.692C256.519 266.672 256.472 266.651 256.417 266.636C255.743 266.479 255.018 266.72 254.378 266.921C251.148 268.001 248.067 269.466 244.945 270.809C242.792 271.933 233.467 275.01 233.469 277.327C233.624 278.341 234.342 279.181 234.68 280.142C235.221 281.653 235.917 283.095 236.507 284.586C236.9 285.651 237.322 286.703 237.733 287.758C237.902 288.142 238.035 288.624 238.228 289.053C234.822 291.217 231.686 294.535 229.92 297.263C229.4 296.399 228.817 295.572 228.06 294.903C227.674 294.641 227.188 294.186 226.674 293.823C226.594 293.536 226.408 293.282 226.126 293.153C224.442 292.365 222.684 291.746 220.899 291.238C216.77 290.052 212.463 289.513 208.171 289.69C202.125 289.858 196.077 290.238 190.161 291.552C184.677 292.714 178.587 293.804 174.124 297.458C174.346 295.748 174.384 294.014 174.24 292.282C173.982 283.185 170.914 279.348 165.396 272.641C164.576 271.866 163.213 272.734 163.549 273.803C163.644 274.152 163.929 274.41 164.134 274.7C166.526 277.744 169.233 280.675 170.6 284.36C171.384 286.456 171.665 288.683 171.884 290.899C172.222 294.342 172.125 297.755 170.994 301.067C170.853 301.629 171.199 302.206 171.731 302.393C171.917 302.523 172.136 302.591 172.364 302.591C172.971 302.591 173.602 302.16 173.61 301.474C174.259 300.328 175.205 299.389 176.269 298.629C181.237 295.311 187.122 294.503 192.91 293.33C196.899 292.495 200.752 292.276 204.893 292.091C209.493 291.795 214.136 291.839 218.631 292.979C220.613 293.453 222.525 294.072 224.404 294.874C224.783 295.53 225.867 295.953 226.412 296.469C227.395 297.317 228.043 298.468 228.654 299.595C228.685 299.653 228.715 299.713 228.745 299.772C228.663 300.419 228.827 301.013 229.472 301.22C231.485 305.391 232.95 309.86 233.516 314.461C233.62 316.9 234.316 319.679 233.73 322.213C232.484 326.317 228.932 329.054 226.482 332.429C226.314 332.637 226.137 332.852 225.952 333.066C225.461 333.275 225.059 333.823 224.657 334.326C224.477 334.465 224.292 334.595 224.097 334.705C223.954 334.843 223.865 335.01 223.82 335.187C219.27 339.587 214.163 343.626 209.012 347.325C203.167 351.191 196.878 354.363 190.414 357.055C187.898 357.99 185.246 358.52 182.59 358.738C182.492 358.766 182.406 358.806 182.325 358.851C178.726 359.252 175.094 359.261 171.476 359.418C162.808 359.489 154.031 358.947 145.723 356.294C140.746 354.753 135.699 353.03 131.331 350.102C130.297 349.442 129.29 348.753 128.312 348.008C128.14 347.89 127.969 347.827 127.803 347.802C125.265 345.965 123.04 343.829 120.678 341.707C105.57 327.496 102.712 307.458 104.885 287.705C105.351 283.658 106.129 279.662 107.439 275.801C107.958 274.172 108.478 272.542 109.052 270.934C109.07 270.884 109.078 270.832 109.087 270.781C110.454 267.51 111.787 264.222 113.374 261.051C116.312 255.391 119.979 250.132 123.955 245.159C129.599 238.663 136.264 233.049 143.519 228.431C147.099 226.181 150.699 223.907 154.444 221.92C154.478 221.923 154.511 221.93 154.545 221.93C154.818 221.93 155.092 221.834 155.301 221.636C155.893 221.225 156.54 220.905 157.172 220.56C160.197 218.945 163.269 217.414 166.344 215.899C174.305 212.265 182.607 209.665 191.187 207.863C193.707 207.289 196.234 206.682 198.816 206.493C198.69 207.516 198.587 208.541 198.539 209.569C198.188 209.81 197.991 210.24 198.051 210.685C198.289 212.77 198.908 214.796 199.984 216.603C201.74 219.753 204.187 222.479 207.048 224.668C209.716 226.977 212.833 228.704 216.315 229.387C217.25 229.695 218.201 229.837 219.146 229.837C221.789 229.837 224.387 228.729 226.476 227.063C229.275 224.984 231.85 222.559 233.969 219.784C235.371 217.977 236.584 216.031 237.66 214.012C238.298 213.013 238.66 211.907 238.831 210.763C238.87 210.649 238.885 210.519 238.885 210.381C238.924 210.033 238.942 209.684 238.948 209.332C244.99 208.413 251.227 209.086 257.276 209.752C275.052 212.036 290.772 220.473 299.163 236.85C301.79 242.297 303.464 248.173 305.32 253.921C306.449 258.37 307.733 263.057 310.818 266.268C310.934 266.639 311.212 266.952 311.627 267.039C312.644 267.923 313.834 268.662 315.243 269.21C315.431 269.301 315.612 269.342 315.78 269.342C316.001 269.342 316.197 269.269 316.363 269.153C317.164 269.374 317.963 269.477 318.757 269.477C321.382 269.477 323.954 268.431 326.384 267.413C331.942 265.262 337.131 262.271 342.424 259.547C346.628 257.23 350.765 254.784 355.106 252.726C359.261 250.66 364.552 250.053 367.056 254.811C368.028 257.12 368.649 259.52 369.135 261.986C369.165 262.142 369.232 262.282 369.323 262.403C369.432 262.881 369.543 263.359 369.667 263.834C370.637 267.448 371.843 271.208 372.72 274.879C373.458 277.728 374.428 280.525 374.882 283.441C375.081 284.674 375.342 285.904 375.39 287.153L375.393 287.154ZM243.476 289.201C246.379 288.421 248.089 290.232 249.169 292.709C249.858 294.019 251.378 293.241 252.196 292.495C258.679 286.373 266.101 282.559 269.854 293.548C271.244 297.94 272.576 302.506 272.368 307.158C272.264 308.987 272.127 310.818 271.136 312.427C266.344 319.146 257.566 321.26 249.765 322.142C245.322 322.43 240.582 322.681 236.117 321.783C236.331 320.222 236.172 318.604 236.007 317.032C235.718 311.014 233.918 304.989 231.192 299.584C231.71 298.518 232.444 297.56 233.154 296.615C235.935 293.44 239.304 290.304 243.476 289.201V289.201ZM240.226 287.942C238.833 284.467 237.592 280.922 235.943 277.558C239.574 275.268 243.838 273.849 247.77 272.056C250.48 270.911 253.012 269.596 255.898 268.871C256.338 269.736 256.701 270.638 257.084 271.527C258.902 275.757 260.475 280.09 262.326 284.306C257.873 284.449 253.962 287.926 250.724 290.769C248.258 286.11 244.204 286.045 240.226 287.942ZM252.848 324.029C261.315 322.719 270.869 319.163 273.727 312.084C274.838 315.008 275.544 318.079 276.677 320.992C276.666 321 276.654 321.005 276.644 321.013C274.355 322.86 271.601 323.905 268.99 325.204C267.401 325.993 265.813 326.772 264.161 327.421C261.338 328.325 258.411 329.098 255.614 330.112C254.519 328.257 253.754 326.229 252.84 324.283C252.857 324.196 252.858 324.112 252.848 324.029ZM401.257 259.076C399.415 260.3 397.403 261.203 395.306 261.897C390.371 263.723 385.26 265.082 380.369 267.024C379.421 267.45 376.066 269.547 374.178 271.506C373.095 267.527 371.842 263.608 370.986 259.526C370.952 259.377 370.895 259.252 370.828 259.141C370.598 258.203 370.34 257.272 370.038 256.352C369.28 253.456 367.515 250.77 364.648 249.63C364.543 249.585 364.437 249.549 364.332 249.508C365.305 249.194 366.112 248.594 366.798 247.853C366.805 247.848 366.812 247.844 366.818 247.839C366.993 247.71 367.111 247.56 367.19 247.403C367.9 246.528 368.478 245.517 368.985 244.56C370.739 241.284 371.327 237.559 373.121 234.294C374.15 231.995 375.592 231.25 377.868 232.534C379.405 233.386 379.434 235.463 380.674 236.592C382.463 238.069 385.133 237.345 386.795 236.011C389.998 233.632 392.231 230.035 395.962 228.374C401.529 225.606 403.74 230.421 405.954 234.643C409.691 243.326 410.314 253.536 401.257 259.074V259.076Z" fill="#404040"/>
<path d="M304.787 48.242C304.796 48.7094 304.807 49.1768 304.816 49.6434C304.882 53.244 304.942 56.8445 305.001 60.4456C305.076 64.8218 305.154 69.1998 305.229 73.576C305.297 77.7402 305.37 81.904 305.443 86.0681C305.518 90.2498 305.56 94.4337 305.66 98.6175C305.674 99.2074 306.085 99.715 306.685 99.7701C306.855 99.8488 307.041 99.8846 307.24 99.8846H307.253C307.331 99.8846 307.408 99.8846 307.485 99.8825H307.496C307.534 99.8825 307.572 99.8824 307.609 99.8803H307.709C312.191 99.8405 316.675 99.8007 321.157 99.7609C325.692 99.7189 330.228 99.6813 334.763 99.6393C339.318 99.5952 343.872 99.5576 348.427 99.5156C352.96 99.4758 357.491 99.436 362.022 99.3941C366.396 99.3565 370.772 99.3167 375.146 99.2769C378.901 99.2454 382.659 99.2244 386.415 99.1785C386.507 99.2025 386.601 99.2196 386.696 99.2196C386.732 99.2196 386.765 99.2196 386.8 99.2152C386.879 99.2074 386.956 99.1881 387.03 99.1636C387.581 99.1129 388.001 98.5812 388.004 98.0443C388.004 98.0155 388.004 97.9892 388.002 97.9604C387.987 97.754 387.916 97.5752 387.812 97.423C387.802 95.2601 387.754 93.0971 387.73 90.9363C387.684 86.7236 387.635 82.5091 387.578 78.2964C387.525 74.2052 387.485 70.1141 387.432 66.0233C387.375 61.8683 387.333 57.7151 387.282 53.5623C387.249 50.969 387.224 48.3776 387.187 45.7866C387.178 45.1701 386.727 44.6401 386.091 44.6226C385.898 44.6161 385.712 44.6677 385.545 44.7542C385.25 44.7595 384.956 44.7652 384.661 44.7713C380.722 44.8443 376.784 44.9169 372.845 44.9877C368.31 45.0695 363.772 45.1556 359.237 45.2396C354.758 45.3213 350.275 45.4053 345.793 45.4871C341.124 45.5732 336.452 45.6615 331.779 45.7455C327.282 45.8272 322.782 45.9112 318.284 45.9951C316.084 46.0349 313.886 46.0747 311.686 46.1167C310.529 46.1385 309.371 46.1586 308.213 46.1805C307.292 46.198 306.369 46.2312 305.448 46.2312C304.834 46.2312 304.332 46.7878 304.348 47.3908C304.358 47.744 304.532 48.044 304.788 48.2429L304.787 48.242ZM309.47 48.4191C313.894 48.3374 318.319 48.2578 322.741 48.1738C327.334 48.0877 331.926 48.0037 336.517 47.9198C341.14 47.8337 345.764 47.7497 350.385 47.6636C354.929 47.5796 359.47 47.4957 364.012 47.4117C368.415 47.3322 372.817 47.2504 377.22 47.1686C379.074 47.1354 380.927 47.1 382.783 47.0672C383.501 47.0528 384.221 47.034 384.94 47.0209C384.95 47.8197 384.961 48.6189 384.971 49.4169C385.017 53.3996 385.07 57.3828 385.114 61.3655C385.158 65.4234 385.204 69.4792 385.26 73.5371C385.315 77.6567 385.359 81.7745 385.408 85.8941C385.434 87.9885 385.461 90.0845 385.485 92.1789C385.504 93.7603 385.534 95.3435 385.547 96.9272C381.781 96.9582 378.015 96.9906 374.248 97.0273C369.877 97.0693 365.505 97.1069 361.134 97.1445C356.583 97.1843 352.033 97.2263 347.484 97.2661C342.896 97.308 338.308 97.3456 333.72 97.3898C329.211 97.4318 324.705 97.4694 320.198 97.5113C316.099 97.5498 311.999 97.5787 307.902 97.6206C307.881 96.528 307.865 95.4354 307.847 94.3427C307.776 90.1742 307.703 86.0061 307.63 81.8353C307.557 77.5806 307.485 73.3264 307.412 69.0695C307.339 64.7864 307.263 60.5029 307.191 56.2197C307.158 54.3996 307.129 52.5772 307.096 50.757C307.082 49.9958 307.064 49.2332 307.051 48.4711C307.858 48.455 308.665 48.4344 309.47 48.4195L309.47 48.4191Z" fill="#404040"/>
<path d="M305.695 37.6947C308.256 37.6947 310.818 37.6374 313.379 37.6086C317.58 37.56 321.782 37.5115 325.983 37.463C330.417 37.4122 334.85 37.3637 339.284 37.3104C343.269 37.264 347.256 37.2199 351.241 37.1757C353.375 37.149 355.509 37.1272 357.642 37.1005C359.03 37.0852 360.417 37.0542 361.802 37.0542H361.817C362.434 37.0498 362.913 36.4447 362.875 35.8548C362.857 35.561 362.72 35.2803 362.502 35.084C362.268 34.8719 361.985 34.7968 361.676 34.7968H361.671C359.867 34.7968 358.06 34.8365 356.255 34.8584C352.128 34.9047 348 34.9533 343.871 34.9996C339.688 35.046 335.502 35.0945 331.315 35.143C326.975 35.1916 322.634 35.2401 318.293 35.2913C316.155 35.3179 314.017 35.342 311.878 35.3665C309.939 35.3866 307.997 35.4281 306.055 35.4351C306.02 35.4329 305.984 35.4329 305.947 35.4329C305.814 35.4329 305.684 35.4373 305.554 35.4373C304.937 35.4438 304.458 36.0446 304.496 36.6366C304.514 36.9304 304.651 37.2111 304.869 37.4075C305.103 37.6195 305.386 37.6947 305.695 37.6947Z" fill="#404040"/>
<path d="M372.467 36.9799C372.478 36.9799 372.486 36.9777 372.498 36.9777C372.586 36.9755 372.672 36.9733 372.758 36.9711C374.87 36.9182 376.98 36.8741 379.091 36.8256C381.831 36.7613 384.57 36.704 387.307 36.6332C387.923 36.6179 388.409 36.0455 388.376 35.4426C388.342 34.8108 387.802 34.3644 387.187 34.3736C386.065 34.4046 384.945 34.4265 383.823 34.4531C380.03 34.5436 376.239 34.621 372.446 34.7181H372.378C371.761 34.7334 371.276 35.3057 371.309 35.9087C371.342 36.5295 371.866 36.9799 372.467 36.9799Z" fill="#404040"/>
<path d="M89.8298 149.487C91.692 150.77 93.8812 151.649 96.1456 151.85C96.5894 151.89 97.0358 151.91 97.4823 151.91C99.1612 151.91 100.833 151.62 102.399 150.991C104.366 150.198 106.13 148.963 107.526 147.366C108.834 145.868 109.797 144.083 110.332 142.17C110.931 140.034 110.968 137.741 110.469 135.58C109.501 131.41 106.449 127.827 102.461 126.252C100.528 125.49 98.4389 125.169 96.3669 125.348C96.2033 125.361 96.0398 125.379 95.8789 125.399C95.8326 125.399 95.7862 125.403 95.7399 125.41C94.9271 125.525 94.1252 125.713 93.3495 125.969C92.9919 126.086 92.636 126.216 92.2849 126.358C92.2298 126.382 92.1764 126.408 92.1279 126.439C91.3571 126.779 90.619 127.19 89.9234 127.672C88.143 128.904 86.6586 130.583 85.6709 132.512C84.7497 134.319 84.2285 136.329 84.1974 138.359C84.169 140.283 84.5463 142.198 85.3176 143.961C86.2787 146.154 87.8558 148.122 89.8307 149.486L89.8298 149.487ZM86.4942 137.682C86.5405 137.196 86.6136 136.714 86.7128 136.235C86.8143 135.791 86.938 135.354 87.084 134.921C87.2344 134.505 87.4264 134.05 87.6494 133.606C87.8636 133.2 88.098 132.807 88.352 132.422C88.6126 132.049 88.8889 131.687 89.1871 131.34C89.5251 130.962 89.8788 130.609 90.2539 130.271C90.6426 129.944 91.0493 129.639 91.4712 129.354C91.88 129.098 92.2976 128.861 92.7304 128.647C93.1611 128.444 93.6005 128.265 94.0513 128.11C94.5239 127.96 95.0031 127.836 95.4872 127.741C95.969 127.659 96.4526 127.604 96.9383 127.575C97.115 127.568 97.2921 127.565 97.4687 127.565C97.7957 127.565 98.1223 127.577 98.4494 127.599C98.9575 127.65 99.4611 127.725 99.9626 127.831C100.301 127.909 100.769 128.043 101.233 128.203C101.666 128.362 102.088 128.545 102.501 128.75C102.821 128.912 103.252 129.166 103.674 129.442C104.076 129.72 104.463 130.016 104.836 130.336C105.178 130.648 105.505 130.977 105.815 131.321C106.15 131.714 106.464 132.123 106.749 132.554C107.02 132.98 107.264 133.417 107.487 133.87C107.679 134.284 107.849 134.706 107.997 135.134C108.156 135.631 108.284 136.135 108.382 136.647C108.461 137.111 108.514 137.577 108.541 138.05C108.558 138.512 108.552 138.973 108.523 139.435C108.476 139.952 108.403 140.462 108.302 140.968C108.207 141.383 108.092 141.79 107.957 142.192C107.796 142.643 107.611 143.084 107.403 143.517C107.173 143.966 106.924 144.399 106.645 144.816C106.372 145.209 106.078 145.587 105.764 145.947C105.443 146.298 105.108 146.632 104.754 146.948C104.399 147.255 104.023 147.538 103.634 147.803C103.19 148.09 102.731 148.351 102.255 148.585C101.816 148.79 101.367 148.974 100.908 149.126C100.431 149.274 99.9425 149.391 99.452 149.486C98.9815 149.563 98.5132 149.614 98.0358 149.645C97.5299 149.663 97.0262 149.654 96.5203 149.616C96.1093 149.574 95.701 149.515 95.2965 149.435C94.8239 149.334 94.36 149.203 93.9005 149.053C93.4256 148.881 92.9639 148.684 92.5109 148.463C92.0934 148.247 91.6867 148.01 91.2937 147.75C90.9203 147.494 90.5648 147.217 90.2225 146.924C89.8714 146.61 89.5177 146.252 89.1797 145.876C88.8526 145.494 88.5457 145.092 88.2628 144.672C87.9803 144.226 87.7193 143.767 87.4898 143.289C87.3394 142.96 87.1474 142.483 86.9839 141.992C86.8536 141.566 86.743 141.133 86.6525 140.696C86.5576 140.17 86.4955 139.64 86.4649 139.105C86.4496 138.63 86.4584 138.155 86.4938 137.68L86.4942 137.682Z" fill="#404040"/>
<path d="M105.308 168.727C104.009 167.245 102.297 166.118 100.419 165.513C99.8826 165.338 99.3326 165.208 98.7781 165.12C98.7405 165.111 98.7008 165.102 98.661 165.097C97.954 164.996 97.2382 164.958 96.5251 164.991C96.2466 165.002 95.9663 165.024 95.69 165.058C95.6524 165.06 95.617 165.066 95.5815 165.075C95.0735 165.142 94.5676 165.243 94.0748 165.384C92.2634 165.894 90.598 166.871 89.257 168.19C86.1955 171.209 85.1505 176.016 86.7652 180.019C87.5649 182.001 88.9037 183.794 90.6754 185.011C91.559 185.617 92.4934 186.092 93.5051 186.445C94.422 186.763 95.3826 186.936 96.3502 187.004C96.5889 187.019 96.8272 187.028 97.0659 187.028C99.1069 187.028 101.155 186.421 102.88 185.341C104.76 184.163 106.238 182.438 107.13 180.41C107.928 178.605 108.217 176.569 107.963 174.612C107.68 172.433 106.757 170.381 105.308 168.727H105.308ZM105.763 176.699C105.728 177.075 105.673 177.446 105.6 177.817C105.516 178.191 105.412 178.558 105.288 178.922C105.169 179.249 105.034 179.567 104.887 179.878C104.708 180.225 104.515 180.559 104.301 180.886C104.074 181.215 103.831 181.531 103.572 181.835C103.34 182.087 103.1 182.326 102.85 182.553C102.543 182.814 102.225 183.059 101.893 183.287C101.542 183.514 101.18 183.717 100.804 183.907C100.444 184.071 100.078 184.217 99.702 184.345C99.2823 184.471 98.8603 184.574 98.4297 184.656C98.1909 184.694 97.8333 184.732 97.4612 184.756C97.0882 184.768 96.7175 184.762 96.3467 184.74C95.989 184.707 95.6331 184.656 95.282 184.587C94.8846 184.499 94.4977 184.393 94.1133 184.265C93.7203 184.119 93.3381 183.956 92.9647 183.768C92.7614 183.657 92.4392 183.469 92.1252 183.264C91.8096 183.045 91.5066 182.811 91.2176 182.559C90.9526 182.316 90.6981 182.06 90.4576 181.795C90.2036 181.499 89.9671 181.19 89.7463 180.869C89.5141 180.509 89.3047 180.138 89.1145 179.756C88.951 179.396 88.8031 179.031 88.6794 178.656C88.5736 178.309 88.4875 177.958 88.4167 177.604C88.355 177.22 88.3082 176.84 88.282 176.454L88.2842 176.456C88.2689 176.076 88.2732 175.698 88.2951 175.32C88.3305 174.927 88.39 174.536 88.4696 174.147C88.5579 173.772 88.6663 173.403 88.7901 173.038C88.9247 172.685 89.0729 172.34 89.2387 172C89.4 171.695 89.5722 171.397 89.762 171.11C89.9784 170.798 90.2062 170.502 90.4511 170.215C90.7007 169.941 90.9722 169.67 91.2595 169.413C91.5511 169.166 91.8559 168.936 92.1698 168.717C92.51 168.501 92.8545 168.302 93.2126 168.121C93.5664 167.953 93.924 167.807 94.2908 167.679C94.7018 167.549 95.115 167.445 95.5365 167.366C95.815 167.319 96.1993 167.275 96.5859 167.251C96.9811 167.238 97.3724 167.244 97.7677 167.27C98.152 167.306 98.5342 167.363 98.9141 167.441C99.2674 167.522 99.6146 167.622 99.9569 167.739C100.273 167.854 100.58 167.986 100.885 168.132C101.24 168.313 101.585 168.514 101.919 168.733C102.241 168.956 102.551 169.194 102.844 169.448C103.129 169.707 103.399 169.976 103.653 170.263C103.892 170.548 104.115 170.844 104.324 171.149C104.547 171.494 104.755 171.85 104.936 172.218C105.091 172.545 105.228 172.883 105.345 173.228C105.462 173.601 105.559 173.979 105.639 174.363C105.703 174.734 105.747 175.108 105.776 175.483C105.793 175.89 105.789 176.294 105.765 176.698L105.763 176.699Z" fill="#404040"/>
<path d="M127.121 162.031C128.667 163.013 130.5 163.519 132.329 163.519C132.451 163.519 132.572 163.517 132.693 163.513C134.872 163.4 137.1 162.607 138.614 160.979C139.378 160.16 139.968 159.207 140.306 158.136C140.668 156.983 140.688 155.744 140.44 154.564C140.339 154.085 140.182 153.612 139.981 153.164C139.871 152.918 139.751 152.678 139.618 152.443C139.521 152.273 139.422 152.095 139.298 151.938C139.248 151.858 139.194 151.778 139.137 151.701C137.754 149.814 135.662 148.582 133.4 148.124C133.354 148.111 133.307 148.098 133.259 148.089C132.832 148.009 132.402 147.961 131.969 147.941C131.783 147.932 131.597 147.926 131.412 147.926H131.368C131.324 147.928 131.277 147.932 131.233 147.936C130.318 147.968 129.406 148.126 128.536 148.409C126.395 149.105 124.46 150.716 123.656 152.856C123.547 153.145 123.457 153.439 123.387 153.737C123.38 153.77 123.373 153.801 123.367 153.832C123.367 153.839 123.365 153.845 123.363 153.852C123.312 154.086 123.268 154.32 123.243 154.561C123.19 155.087 123.177 155.619 123.239 156.147C123.537 158.612 125.048 160.715 127.12 162.03L127.121 162.031ZM125.477 154.942C125.504 154.749 125.548 154.547 125.567 154.348C125.574 154.325 125.578 154.301 125.583 154.279C125.625 154.111 125.671 153.945 125.724 153.782C125.793 153.605 125.865 153.429 125.949 153.256C126.031 153.101 126.119 152.952 126.214 152.803C126.358 152.598 126.512 152.399 126.674 152.207C126.819 152.052 126.967 151.904 127.122 151.758C127.33 151.582 127.546 151.416 127.769 151.261C127.997 151.118 128.231 150.987 128.472 150.866C128.706 150.757 128.947 150.66 129.19 150.572C129.528 150.466 129.866 150.382 130.208 150.311C130.553 150.259 130.897 150.219 131.244 150.199C131.533 150.19 131.825 150.194 132.117 150.216C132.417 150.245 132.713 150.289 133.007 150.346C133.349 150.419 133.687 150.514 134.019 150.627C134.323 150.74 134.619 150.868 134.909 151.012C135.178 151.151 135.437 151.305 135.689 151.473C135.925 151.639 136.155 151.816 136.374 152.004C136.59 152.2 136.796 152.408 136.99 152.627C137.153 152.823 137.308 153.026 137.454 153.236C137.59 153.453 137.716 153.673 137.831 153.899C137.931 154.111 138.017 154.323 138.094 154.544C138.162 154.767 138.22 154.992 138.266 155.222C138.302 155.449 138.326 155.679 138.342 155.909C138.346 156.123 138.342 156.335 138.326 156.545C138.307 156.728 138.28 156.91 138.245 157.093C138.2 157.278 138.147 157.458 138.09 157.639C138.019 157.824 137.942 158.008 137.855 158.184C137.761 158.359 137.661 158.531 137.557 158.697C137.425 158.884 137.286 159.066 137.137 159.245C136.98 159.417 136.817 159.58 136.647 159.735C136.477 159.881 136.3 160.014 136.117 160.142C135.856 160.312 135.587 160.464 135.308 160.606C135.072 160.714 134.833 160.809 134.588 160.897C134.29 160.99 133.987 161.067 133.682 161.134C133.342 161.191 133 161.237 132.655 161.253L132.502 161.26L132.648 161.253C132.328 161.262 132.01 161.258 131.689 161.236C131.356 161.202 131.026 161.152 130.695 161.085C130.384 161.012 130.077 160.924 129.772 160.82C129.48 160.71 129.195 160.586 128.912 160.451C128.663 160.321 128.42 160.18 128.181 160.027C127.923 159.851 127.675 159.663 127.437 159.462C127.231 159.276 127.034 159.082 126.847 158.874L126.838 158.863C126.818 158.843 126.8 158.821 126.781 158.799C126.664 158.658 126.514 158.459 126.37 158.254C126.226 158.026 126.093 157.796 125.972 157.558C125.873 157.339 125.782 157.12 125.703 156.893C125.637 156.672 125.579 156.448 125.533 156.221C125.504 156.038 125.482 155.852 125.467 155.667C125.458 155.424 125.46 155.185 125.476 154.942L125.477 154.942Z" fill="#404040"/>
<path d="M343.867 397.954C343.897 398.246 343.987 398.539 344.064 398.827C344.362 399.934 344.618 401.054 344.868 402.174C345.723 405.419 346.074 408.752 346.787 412.021C346.823 412.15 346.875 412.261 346.935 412.358C347.052 412.591 347.243 412.788 347.494 412.904C347.647 412.959 347.791 412.984 347.929 412.984C348.942 412.984 349.591 411.647 350.32 411.042C353.671 407.704 356.626 404.028 359.955 400.669C360.218 400.442 360.32 400.102 360.292 399.771L360.293 399.765C360.36 399.036 359.732 398.528 359.05 398.514C356.196 397.71 353.216 397.602 350.32 396.97C348.884 396.778 347.439 396.652 346.012 396.374C345.44 396.279 344.72 396.071 344.194 396.405C343.581 396.822 343.559 397.478 343.867 397.954L343.867 397.954ZM352.991 399.76C354.37 399.87 355.722 400.101 357.068 400.371C356.311 401.235 355.522 402.07 354.749 402.922C352.856 405.149 350.819 407.247 348.798 409.365C348.743 409.431 348.681 409.492 348.623 409.556C347.994 406.132 347.395 402.621 346.511 399.255C346.467 399.078 346.419 398.902 346.37 398.725C348.58 399.059 350.804 399.285 352.99 399.759L352.991 399.76Z" fill="#404040"/>
<path d="M385.261 417.592C385.248 415.316 385.321 413.043 385.193 410.771C385.02 407.294 385.199 403.724 384.565 400.304C384.055 399.361 382.847 399.669 382.52 400.429C382.072 400.667 381.634 400.973 381.266 401.152C379.064 402.387 376.91 403.694 374.763 405.024C372.233 406.524 369.584 407.81 367.119 409.416C366.546 409.809 365.572 410.153 365.243 410.761C364.415 411.35 364.728 412.979 365.967 412.917C371.679 416.277 377.431 419.48 383.467 422.266C383.628 422.33 383.782 422.358 383.926 422.358C383.962 422.358 383.996 422.352 384.03 422.348C384.113 422.372 384.2 422.392 384.3 422.403C384.313 422.403 384.326 422.403 384.338 422.403C385.129 422.403 385.566 421.604 385.446 420.878C385.477 419.781 385.553 418.667 385.261 417.591L385.261 417.592ZM383.226 419.64C379.941 418.055 376.475 416.413 373.314 414.532C371.834 413.585 370.268 412.791 368.737 411.927C368.498 411.806 368.262 411.659 368.026 411.507C368.291 411.331 368.544 411.164 368.772 411.055C370.793 409.734 372.969 408.684 375.059 407.478C377.076 406.303 379.017 405.009 381.063 403.88C381.588 403.582 382.109 403.279 382.632 402.98C382.882 406.294 382.878 409.628 383.008 412.948C383.136 414.814 382.771 416.725 383.156 418.561C383.248 418.857 383.248 419.236 383.225 419.639L383.226 419.64Z" fill="#404040"/>
<path d="M363.822 439.986C363.754 439.682 363.552 439.399 363.174 439.227C361.882 438.253 360.894 436.888 359.463 436.066C355.964 433.639 353.068 430.449 349.591 428.001C349.277 427.798 348.937 427.564 348.57 427.48C347.61 427.203 346.785 428.276 347.241 429.136C347.233 429.246 347.238 429.359 347.267 429.469C347.393 431.091 347.503 432.717 347.636 434.338C347.863 438.955 348.029 443.618 349.244 448.1C349.343 448.62 349.852 448.964 350.36 448.964C350.444 448.964 350.528 448.954 350.609 448.935C350.734 448.898 350.839 448.849 350.932 448.792C351.865 448.558 352.96 447.553 353.675 447.165C355.842 445.72 357.949 444.185 360.178 442.828C360.94 442.375 361.72 441.956 362.533 441.596C363.255 441.401 364.051 440.979 363.861 440.094C363.851 440.053 363.834 440.024 363.822 439.986ZM351.127 446.142C350.947 445.525 350.758 444.925 350.76 444.482C350.021 439.994 350.034 435.397 349.638 430.871C351.924 432.651 354.007 434.704 356.269 436.51C357.409 437.429 358.527 438.059 359.655 439.05C359.995 439.349 360.307 439.686 360.627 440.014C357.268 441.718 354.313 444.134 351.127 446.142Z" fill="#404040"/>
<path d="M294.367 28.3318C294.374 30.4427 294.38 32.5532 294.386 34.6659C294.404 40.7495 294.426 46.8332 294.444 52.9168C294.463 59.2675 294.481 65.6166 294.505 71.9673C294.53 78.3802 294.543 84.7952 294.567 91.2077C294.592 97.9782 294.611 104.751 294.631 111.522C294.653 118.145 294.675 124.765 294.695 131.385C294.717 138.083 294.735 144.781 294.759 151.479C294.785 158.172 294.807 164.867 294.823 171.561C294.841 177.717 294.882 183.871 294.882 190.028C294.882 190.622 295.361 191.12 295.952 191.155C296.138 191.325 296.376 191.436 296.641 191.436C298.273 191.436 299.905 191.436 301.538 191.438C306.108 191.441 310.677 191.441 315.245 191.443C319.906 191.445 324.565 191.447 329.223 191.447C333.882 191.447 338.539 191.449 343.196 191.451C347.954 191.454 352.714 191.456 357.473 191.456C362.231 191.456 366.947 191.46 371.683 191.46C376.37 191.46 381.058 191.465 385.746 191.465C388.896 191.465 392.046 191.465 395.196 191.469C395.383 191.835 395.76 192.094 396.195 192.096H396.199C396.814 192.096 397.328 191.583 397.33 190.969C397.33 190.759 397.333 190.549 397.333 190.342C397.333 190.32 397.333 190.298 397.33 190.276C397.333 184.322 397.359 178.367 397.372 172.414C397.388 165.776 397.403 159.138 397.417 152.499C397.42 150.789 397.425 149.078 397.428 147.367C400.745 147.371 404.062 147.392 407.378 147.402C410.846 147.413 414.314 147.424 417.782 147.437C419.188 147.443 420.595 147.449 422.002 147.452C422.206 147.62 422.465 147.725 422.734 147.725H422.776C423.274 147.704 423.654 147.367 423.796 146.924C423.897 146.768 423.964 146.586 423.974 146.379C423.983 146.193 423.937 146.01 423.856 145.843C423.85 143.809 423.845 141.774 423.841 139.742C423.832 135.753 423.82 131.765 423.81 127.776C423.796 123.588 423.79 119.399 423.779 115.209C423.768 111.555 423.756 107.902 423.75 104.248C423.743 101.368 423.727 98.4893 423.727 95.611C423.727 95.423 423.669 95.2503 423.577 95.0973C423.577 93.7602 423.58 92.4236 423.579 91.0874C423.577 86.7182 423.572 82.3507 423.563 77.9836C423.555 73.6052 423.555 69.2272 423.548 64.8488C423.539 60.4419 423.537 56.0369 423.533 51.63C423.526 47.0553 423.52 42.4801 423.515 37.9053C423.513 33.5536 423.508 29.1996 423.5 24.8479C423.491 20.7104 423.491 16.5729 423.484 12.4354C423.478 8.73728 423.471 5.0418 423.471 1.34633C423.471 1.15395 423.413 0.974685 423.321 0.816408C423.185 0.364749 422.775 -0.00689851 422.284 9.71741e-05C420.921 0.0180236 419.556 0.0180256 418.193 0.0267703C414.197 0.0556275 410.199 0.0818552 406.202 0.110712C402.109 0.137383 398.018 0.165811 393.925 0.194668C392.124 0.206036 390.322 0.222643 388.521 0.233136C388.399 0.187227 388.269 0.158818 388.132 0.159255C385.064 0.174558 381.996 0.1833 378.927 0.194668C374.883 0.209971 370.836 0.225708 366.791 0.243197C362.276 0.261124 357.761 0.278614 353.245 0.296103C348.765 0.313592 344.283 0.327147 339.804 0.349009C335.775 0.366935 331.743 0.39535 327.714 0.39535C327.366 0.399285 327.054 0.564997 326.845 0.817716C326.634 1.03196 326.506 1.32753 326.507 1.64889V1.96894C326.507 1.98862 326.507 2.00655 326.509 2.02622C326.516 3.99026 326.524 5.95386 326.531 7.91747C326.547 11.5998 326.565 15.2844 326.576 18.9667C326.583 20.8311 326.596 22.6967 326.599 24.5615C325.531 24.5803 324.463 24.5995 323.395 24.6183C318.796 24.7001 314.197 24.7775 309.595 24.8636C305.241 24.9432 300.89 25.0184 296.536 25.0954C296.492 25.0958 296.451 25.1019 296.409 25.1059C296.27 25.0468 296.115 25.0114 295.94 25.0162C295.417 24.9764 294.834 25.0893 294.524 25.5597C294.069 26.2335 294.339 27.0572 294.224 27.8171C294.22 28.0034 294.276 28.177 294.364 28.3309L294.367 28.3318ZM338.799 2.61561C343.263 2.59768 347.728 2.58019 352.194 2.5627C356.723 2.54477 361.253 2.5251 365.782 2.5098C369.884 2.49449 373.986 2.47875 378.088 2.46127C380.753 2.45077 383.417 2.44072 386.08 2.42979C386.195 2.47526 386.318 2.50543 386.448 2.50543C387.831 2.50543 389.211 2.48532 390.592 2.47657C394.08 2.45252 397.566 2.42804 401.052 2.40574C405.129 2.37689 409.205 2.35065 413.283 2.32179C415.926 2.30211 418.57 2.29643 421.213 2.26844C421.214 4.86209 421.217 7.454 421.223 10.0481C421.229 14.179 421.229 18.31 421.236 22.4427C421.245 26.7525 421.254 31.0644 421.254 35.3764C421.254 39.9402 421.263 44.5018 421.269 49.0635C421.276 53.4659 421.278 57.8662 421.285 62.2691C421.293 66.7223 421.293 71.1759 421.302 75.6313C421.309 79.9411 421.311 84.2509 421.317 88.5607C421.322 91.6667 421.293 94.7746 421.328 97.8807C421.33 98.0718 421.387 98.2493 421.477 98.4071C421.479 98.9313 421.48 99.4552 421.481 99.979C421.49 103.745 421.501 107.512 421.51 111.278C421.519 115.358 421.532 119.438 421.541 123.518C421.548 127.609 421.564 131.698 421.572 135.787C421.578 138.923 421.587 142.057 421.595 145.192C420.399 145.188 419.204 145.183 418.007 145.178C414.57 145.165 411.133 145.156 407.694 145.145C404.275 145.133 400.855 145.112 397.435 145.108C397.445 140.844 397.454 136.579 397.465 132.316C397.48 125.614 397.489 118.912 397.509 112.21C397.529 105.612 397.538 99.0135 397.555 92.4153C397.57 86.0532 397.584 79.6914 397.597 73.3315C397.61 66.9562 397.628 60.5832 397.641 54.2079C397.652 48.1024 397.668 41.9943 397.681 35.8888C397.69 32.2375 397.694 28.588 397.706 24.9367C397.708 24.3202 397.195 23.8034 396.579 23.8012C396.546 23.8012 396.516 23.8082 396.484 23.8108C396.288 23.5301 395.979 23.3298 395.625 23.336C394.079 23.3648 392.533 23.391 390.986 23.4199C386.663 23.4951 382.342 23.5703 378.021 23.6494C373.544 23.729 369.068 23.8064 364.591 23.8882C360.06 23.9699 355.532 24.0473 351.001 24.1291C346.43 24.2109 341.862 24.2904 337.292 24.3722C334.483 24.4216 331.672 24.4719 328.862 24.5222C328.86 23.5533 328.855 22.5844 328.851 21.6163C328.835 18.5081 328.826 15.398 328.813 12.2898C328.799 9.07656 328.787 5.86555 328.775 2.65453C332.117 2.65016 335.459 2.62741 338.798 2.61561H338.799ZM302.858 27.2413C307.526 27.1617 312.193 27.0756 316.861 26.9938C321.46 26.9121 326.057 26.8259 330.654 26.7485C335.317 26.6668 339.978 26.5828 344.641 26.4989C349.121 26.4193 353.601 26.3419 358.081 26.2602C362.618 26.1784 367.155 26.101 371.693 26.0192C376.051 25.9397 380.409 25.8623 384.768 25.7871C388.325 25.7259 391.883 25.6598 395.441 25.5964C395.432 28.8171 395.429 32.0377 395.421 35.2583C395.405 41.3616 395.392 47.4654 395.379 53.5687C395.365 59.9439 395.348 66.3214 395.334 72.6966C395.324 79.0076 395.303 85.3212 395.293 91.6322C395.282 98.2904 395.264 104.946 395.248 111.602C395.23 118.3 395.224 124.997 395.202 131.695C395.18 138.4 395.169 145.104 395.158 151.806C395.145 158.455 395.127 165.104 395.111 171.751C395.099 177.57 395.076 183.39 395.071 189.209C394.384 189.209 393.697 189.209 393.012 189.207C388.755 189.207 384.5 189.205 380.246 189.203C375.488 189.203 370.728 189.198 365.969 189.198C361.273 189.198 356.577 189.194 351.88 189.194C347.096 189.194 342.311 189.192 337.524 189.19C332.901 189.187 328.279 189.19 323.656 189.185C319.028 189.181 314.4 189.181 309.772 189.181C305.562 189.181 301.355 189.177 297.145 189.177C297.142 185.174 297.118 181.169 297.105 177.165C297.084 170.571 297.063 163.977 297.042 157.383C297.019 150.667 297 143.954 296.978 137.241C296.955 130.632 296.934 124.022 296.914 117.415C296.894 110.587 296.87 103.759 296.847 96.9332C296.828 90.3922 296.808 83.8513 296.786 77.3107C296.764 71.0238 296.746 64.7391 296.726 58.4526C296.707 52.1481 296.684 45.8437 296.665 39.5388C296.651 35.5561 296.642 31.5729 296.627 27.5902C296.627 27.5089 296.617 27.4297 296.6 27.3528C298.686 27.3161 300.772 27.2776 302.859 27.2409L302.858 27.2413Z" fill="#404040"/>
<path d="M342.995 14.5656C345.438 14.5656 347.881 14.5415 350.324 14.528C354.572 14.5057 358.818 14.4838 363.065 14.4642C367.45 14.4419 371.835 14.4178 376.218 14.3977C379.492 14.3824 382.763 14.3645 386.034 14.347C386.651 14.3448 387.181 13.8875 387.203 13.2535C387.223 12.6549 386.726 12.0826 386.11 12.0869C384.323 12.0957 382.535 12.1044 380.748 12.1136C376.394 12.1333 372.038 12.1578 367.684 12.1801C363.337 12.2019 358.987 12.222 354.64 12.2461C350.783 12.2662 346.926 12.3034 343.069 12.3034C342.453 12.3034 341.923 12.7651 341.9 13.3969C341.881 13.9976 342.377 14.5656 342.994 14.5656H342.995Z" fill="#404040"/>
<path d="M398.403 13.9408C398.498 13.9386 398.591 13.9386 398.684 13.9386H398.724C398.735 13.9386 398.743 13.9386 398.755 13.9364C399.853 13.9298 400.95 13.932 402.051 13.9298C405.443 13.9211 408.837 13.9254 412.23 13.8988C412.846 13.8944 413.325 13.2936 413.29 12.7038C413.252 12.0611 412.709 11.6414 412.095 11.6414H412.091C411.598 11.6457 411.103 11.6435 410.611 11.6457C406.498 11.661 402.382 11.6457 398.269 11.6811C397.653 11.6877 397.173 12.2863 397.209 12.8783C397.246 13.5166 397.789 13.9429 398.403 13.9408Z" fill="#404040"/>
<path d="M411.339 73.1234C410.707 73.1435 410.243 73.6713 410.239 74.2877C410.237 75.0564 410.232 75.8272 410.23 76.5963C410.208 80.9017 410.19 85.2071 410.169 89.5125C410.146 93.8621 410.127 98.2139 410.109 102.566C410.089 106.959 410.067 111.353 410.047 115.747C410.025 120.162 409.985 124.578 409.985 128.994V129.074C409.985 129.681 410.527 130.174 411.119 130.174H411.147C411.781 130.154 412.239 129.626 412.245 129.009C412.248 128.983 412.248 128.959 412.248 128.932C412.248 128.91 412.245 128.89 412.245 128.868C412.245 127.686 412.258 126.502 412.263 125.318C412.283 120.794 412.31 116.272 412.327 111.748C412.345 107.407 412.365 103.067 412.387 98.7281C412.411 94.3741 412.424 90.0224 412.448 85.6706C412.468 81.8536 412.486 78.0383 412.501 74.2235C412.503 73.607 411.94 73.1081 411.339 73.1234Z" fill="#404040"/>
<path d="M411.677 36.9295C411.472 43.2873 411.335 49.6577 411.322 56.0221C411.313 58.1028 411.364 60.1862 411.448 62.267C411.468 62.6448 411.452 63.0776 411.671 63.4047C411.895 63.7567 412.281 63.9425 412.662 63.9425C413.004 63.9425 413.342 63.793 413.56 63.4799C413.765 63.2084 413.838 62.8039 413.723 62.4459C413.657 60.7647 413.588 59.0836 413.588 57.4028C413.57 50.6498 413.732 43.9055 413.929 37.1595C414.037 35.6616 411.854 35.4696 411.677 36.9295Z" fill="#404040"/>
<path d="M107.871 342.907C108.196 342.049 107.292 340.955 106.257 341.517C99.0535 345.716 92.3831 351.16 87.7738 358.205C87.9085 354.469 87.9461 350.729 87.8919 346.992C87.8014 340.781 87.4678 334.571 86.8911 328.386C86.3388 322.464 85.5746 316.561 84.5938 310.694C83.6241 304.906 82.4532 299.154 81.0641 293.45C79.8228 288.361 78.4066 283.313 76.8094 278.323C75.9988 275.792 75.1392 273.276 74.2337 270.777C74.1694 270.602 74.0601 270.455 73.9276 270.337C73.918 270.324 73.9123 270.311 73.9023 270.297C73.4825 269.846 72.7537 269.816 72.3029 270.236C70.644 271.8 69.1177 273.503 67.7745 275.347C59.3582 287.342 55.1171 301.758 52.76 316.081C52.2808 318.978 51.1623 325.655 51.0513 331.297C49.7614 328.769 48.4109 326.271 46.9833 323.817C44.4299 319.428 41.6662 315.16 38.6576 311.073C35.8278 307.229 32.7882 303.533 29.5103 300.065C27.7364 298.185 25.8852 296.379 23.9679 294.647C23.88 294.568 23.7799 294.512 23.675 294.469C23.6877 293.929 23.2959 293.431 22.7555 293.329C21.5846 293.133 21.3638 294.343 21.2422 295.225C20.3651 299.844 20.4911 304.6 20.4382 309.285C20.4714 317.869 21.178 326.436 22.1521 334.963C22.8679 340.971 23.9924 346.925 25.8458 352.695C26.9665 356.782 28.0875 361.064 29.5282 365.162C25.4056 360.985 20.8811 357.207 15.9124 354.053C14.2277 353.145 4.69088 348.185 1.65213 349.094C1.57037 349.083 1.48423 349.077 1.38891 349.083C0.799085 349.129 0.266539 349.688 0.350487 350.298C0.498708 351.392 0.686285 352.476 0.869484 353.563C1.38192 357.022 2.13964 360.433 2.92403 363.841C5.30082 373.669 9.11608 383.256 13.8653 392.203C19.412 403.173 26.05 413.855 35.2375 422.164C36.6258 423.446 38.0913 424.63 39.5797 425.788C39.5635 425.802 39.5447 425.809 39.5294 425.824C39.4607 425.87 39.3904 425.917 39.3217 425.963C39.8512 426.335 40.3732 426.719 40.8966 427.102C40.9827 427.165 41.0689 427.228 41.1546 427.291C41.855 427.803 42.5572 428.313 43.2686 428.813C43.3547 428.872 43.443 428.932 43.5292 428.991C43.5663 428.966 43.593 428.931 43.6267 428.902L43.6516 428.921C43.7006 428.962 43.7496 429.003 43.7985 429.043C43.7539 429.057 43.7106 429.069 43.6647 429.085C43.9244 429.26 44.1859 429.432 44.4469 429.604V429.605C44.6021 429.707 44.756 429.813 44.9117 429.917C45.1041 430.046 45.2982 430.174 45.4871 430.307C45.5667 430.362 45.6454 430.42 45.7245 430.476C46.1591 430.783 46.5902 431.096 47.0191 431.41C47.1446 431.501 47.2701 431.593 47.3956 431.685C47.487 431.752 47.581 431.814 47.6728 431.88C47.7865 431.962 47.9002 432.045 48.0139 432.125L48.0169 432.122C48.5442 432.491 49.0772 432.85 49.6176 433.201C50.1344 433.534 50.6403 433.883 51.144 434.235C51.6302 434.495 52.1269 434.745 52.6327 434.977C53.3712 435.349 54.1115 435.726 54.8587 436.09C54.8902 436.171 54.9269 436.249 54.9719 436.323C55.118 436.783 55.5172 437.189 55.9942 437.297L56.0112 437.306C52.4343 437.2 48.8529 437.132 45.2882 437.347C40.9762 437.523 36.6664 437.601 32.3545 437.809C31.842 437.831 31.2697 437.822 30.8657 438.184C30.6129 438.395 30.4993 438.687 30.494 438.981C29.8981 439.476 30.1477 440.407 30.2627 441.105C30.3943 441.959 30.5412 442.81 30.6711 443.662C31.5198 449.712 32.6286 455.717 33.5542 461.756C34.2752 467.172 35.2712 472.564 36.5234 477.889C36.7517 479.676 37.3752 481.412 37.7105 483.191C37.7166 483.218 37.7214 483.248 37.7271 483.276H10.889C10.4125 483.276 10.0247 483.709 10.0386 484.174C10.1327 484.917 10.698 485.056 11.3451 485.056C11.5414 485.056 11.743 485.044 11.9428 485.03C12.2777 485.008 12.6039 484.987 12.8719 485.026C32.5696 485.026 52.2637 485.026 71.9614 485.025C72.6666 484.96 73.3736 484.91 74.0793 484.861C75.1178 484.789 76.185 484.733 77.2322 484.774C77.9445 484.748 78.6532 484.835 79.3331 485.025H101.584C102.061 485.025 102.449 484.593 102.435 484.126C102.375 483.231 101.514 483.252 100.795 483.27C100.67 483.274 100.551 483.277 100.441 483.277C95.9474 483.277 91.4522 483.277 86.9575 483.277C87.1101 482.626 87.2553 481.976 87.3825 481.32C87.4057 481.201 87.4271 481.081 87.4503 480.962L87.4682 480.961C87.7166 479.803 87.9631 478.645 88.2386 477.492C90.4401 466.828 92.6367 456.164 94.6125 445.454C95.024 443.601 95.4783 441.751 95.8831 439.892C96.201 438.818 96.1993 437.192 94.6908 437.248C94.1491 437.314 93.6065 437.335 93.0634 437.335C92.8719 437.068 92.5768 436.879 92.234 436.868C83.9695 436.809 75.7049 437.314 67.4361 437.461C67.9332 437.167 68.4294 436.87 68.9353 436.589C69.4919 436.295 70.0608 436.019 70.63 435.743C70.7284 435.731 70.8263 435.71 70.9199 435.667C70.9684 435.643 71.017 435.621 71.0655 435.596C72.5412 434.894 74.0872 433.999 75.5808 433.016C77.1382 431.989 78.6689 430.827 80.1402 429.59C80.6015 429.2 81.0584 428.802 81.5079 428.398C81.5149 428.405 81.521 428.413 81.528 428.421C81.5302 428.421 81.5302 428.423 81.5324 428.423C81.5674 428.342 81.6154 428.269 81.6631 428.197C81.6832 428.167 81.6994 428.134 81.7217 428.106C81.7641 428.05 81.8148 427.999 81.8642 427.949C81.8909 427.921 81.9136 427.891 81.9425 427.865L81.9407 427.864L81.9416 427.863L81.9368 427.86C82.2171 427.635 82.5061 427.409 82.7995 427.196L82.8003 427.194L82.8016 427.192C82.8143 427.173 82.8266 427.155 82.841 427.138C82.956 426.985 83.0797 426.842 83.2052 426.696C83.4238 426.447 83.656 426.206 83.8812 425.961C83.9935 425.839 84.1042 425.716 84.2161 425.594C84.2996 425.503 84.3831 425.412 84.4675 425.321H84.4658C84.732 425.029 84.9992 424.739 85.2646 424.445C85.7219 423.94 86.1613 423.418 86.6541 422.945C86.8661 422.74 87.1005 422.563 87.3545 422.431C88.0104 421.677 88.6535 420.911 89.281 420.133C91.903 416.884 94.2798 413.431 96.4314 409.853C98.6228 406.208 100.598 402.428 102.334 398.547C104.101 394.597 105.643 390.548 106.931 386.42C108.203 382.337 109.228 378.178 109.964 373.965C110.682 369.848 111.12 365.664 111.159 361.482C111.195 357.488 110.899 353.47 110.032 349.562C109.526 347.286 108.835 345.036 107.871 342.909L107.871 342.907ZM53.3489 330.34C53.6694 322.379 55.3173 314.55 56.8284 306.753C59.5475 296.212 63.2146 285.655 69.5899 276.688C70.3122 275.685 71.2045 274.621 72.1498 273.598C72.2744 273.417 72.4485 273.237 72.6426 273.055C72.7611 273.388 72.8826 273.721 72.9985 274.055C74.0719 277.143 75.0749 280.258 76.0071 283.393C77.1513 287.254 78.1941 291.162 79.1328 295.094C80.4935 300.806 81.6377 306.567 82.5786 312.364C83.1728 316.051 83.7032 319.897 84.1404 323.752C84.8496 330.034 85.3114 336.343 85.5278 342.658C85.6227 345.546 85.6668 348.477 85.6515 351.406C85.6305 355.3 85.5068 359.195 85.2746 363.082C84.781 364.395 84.5401 365.612 85.0696 366.104C84.976 367.363 84.8737 368.621 84.7565 369.878V369.882C84.7499 369.929 84.7429 369.975 84.7429 370.023C84.701 370.255 84.6988 370.498 84.6769 370.721C84.6503 370.995 84.6218 371.267 84.5952 371.541C84.5265 372.188 84.4583 372.835 84.3853 373.482C83.6848 379.625 82.6888 385.736 81.3282 391.766L81.3059 391.861C80.0821 397.254 78.529 402.648 76.5895 407.901C75.1934 411.665 73.5324 415.487 71.5906 419.169C70.1193 421.935 68.4845 424.623 66.66 427.184C66.3784 427.575 66.0837 427.968 65.7855 428.362C65.4668 428.485 65.2092 428.762 65.1288 429.206L65.1214 429.215C65.1253 429.191 65.1284 429.165 65.1319 429.141C65.1384 429.121 65.145 429.101 65.152 429.079C65.1288 429.145 65.0999 429.209 65.075 429.274C64.8293 429.586 64.5818 429.895 64.3265 430.205C65.9748 425.689 67.0758 420.979 67.788 416.229C68.5768 410.963 68.8925 405.628 68.8418 400.305C68.7888 394.614 68.3534 388.928 67.5629 383.293C66.7763 377.689 65.6985 372.131 64.3134 366.646C62.9859 361.389 61.4084 356.197 59.586 351.09C57.96 346.535 56.138 342.051 54.1276 337.653C54.0022 337.378 53.8688 337.108 53.7416 336.834C53.3201 334.705 53.3402 332.503 53.3481 330.341L53.3489 330.34ZM27.0395 348.731C24.8437 340.891 24.1148 332.745 23.4035 324.651C22.6943 315.698 22.3541 306.681 23.1053 297.714C23.1359 297.486 23.1713 297.257 23.2085 297.03C23.6977 297.48 24.1892 297.928 24.6688 298.389C24.9583 298.667 25.3159 299.014 25.6696 299.365C28.5392 302.222 31.2299 305.252 33.7658 308.409C34.203 308.957 34.6761 309.555 35.1396 310.16C38.1989 314.141 41.0199 318.299 43.6267 322.588C44.603 324.203 45.5553 325.844 46.4766 327.505C48.2933 330.776 49.9862 334.113 51.5685 337.504C51.7963 338.373 52.1094 339.088 52.5221 339.605C52.7491 340.109 52.9834 340.61 53.2055 341.117H53.2033C54.0804 343.125 54.9177 345.151 55.7148 347.192C57.632 352.1 59.3176 357.102 60.7735 362.167L60.7915 362.233C60.7958 362.246 60.8002 362.262 60.8046 362.275C61.1758 363.592 61.54 364.926 61.8846 366.262C63.2784 371.71 64.4008 377.223 65.2136 382.788C65.2267 382.887 65.2403 382.985 65.2556 383.084C66.0465 388.712 66.5105 394.378 66.5835 400.062C66.6276 404.518 66.409 409.124 65.8546 413.699L65.8524 413.71C65.8481 413.752 65.8437 413.791 65.8393 413.833C65.413 417.182 64.7965 420.54 63.9439 423.845C63.3121 426.261 62.5037 428.782 61.5186 431.238C61.47 431.358 61.4167 431.477 61.3673 431.596C61.307 429.318 60.7705 427.067 60.1544 424.881C59.2135 421.431 58.6897 417.874 57.6736 414.439C54.7887 405.336 50.8699 396.589 45.913 388.422C42.4781 382.075 38.7865 375.824 34.1899 370.237C34.1252 370.162 34.0588 370.087 33.9936 370.011C33.862 369.819 33.7081 369.635 33.6259 369.413C30.6702 362.778 29.1106 355.663 27.0408 348.731L27.0395 348.731ZM51.4286 431.797C50.5441 431.303 49.695 430.747 48.8673 430.155C48.7847 429.835 48.5696 429.621 48.2893 429.489C48.3024 429.43 48.3147 429.371 48.3182 429.31C48.3514 428.694 47.863 428.153 47.2491 428.117C46.9418 428.1 46.6444 428.146 46.3589 428.233C44.6406 426.852 42.9542 425.419 41.1616 424.181C30.7551 416.222 23.0563 405.199 17.1804 393.601C12.0818 384.367 7.99109 374.613 5.37339 364.38C4.58463 361.013 3.80505 357.638 3.26813 354.223C3.10898 353.255 2.93583 352.289 2.78149 351.32C3.46838 351.385 4.15003 351.498 4.82205 351.665C9.1585 353.096 13.5299 355.009 17.3076 357.675C22.7087 361.619 27.7714 366.148 32.0982 371.28C32.1192 371.305 32.1393 371.33 32.1612 371.355C33.5905 373.055 34.9394 374.82 36.1925 376.653C40.5154 382.904 43.9725 389.681 47.7633 396.255C50.9643 402.45 53.5662 408.975 55.6759 415.653C56.6168 419.088 57.1493 422.64 58.141 426.066C58.8012 428.66 59.5104 431.428 58.8458 434.085C58.7981 434.459 58.6294 434.826 58.4602 435.191C56.0278 434.268 53.7298 433.002 51.4291 431.797L51.4286 431.797ZM88.0165 439.117C88.2758 439.36 88.643 439.483 89.0129 439.407C90.5432 439.418 92.0941 439.668 93.6397 439.586C92.2734 445.128 91.2896 450.752 90.2612 456.363C89.3885 461.167 88.1914 465.901 87.2981 470.699C86.905 472.858 86.4538 475.004 85.9873 477.147C85.4246 477.718 85.6445 478.682 85.4517 479.415C85.4303 479.578 85.4045 479.741 85.3813 479.904C85.2982 480.278 85.2152 480.653 85.1321 481.028L85.2042 481.026C85.0739 481.78 84.9213 482.53 84.746 483.274C82.6477 483.274 80.5495 483.274 78.4512 483.274H41.2582C41.1419 483.329 41.0138 483.359 40.8852 483.359C40.8188 483.359 40.7519 483.352 40.6889 483.335C40.6273 483.32 40.57 483.299 40.5162 483.274H39.7839C39.7537 483.113 39.7205 482.953 39.6894 482.794C39.5906 482.408 39.5084 482.023 39.431 481.639L39.7069 481.62C39.6689 481.5 39.6317 481.38 39.5963 481.259C39.5281 481.018 39.4629 480.776 39.4035 480.533C39.3676 480.39 39.3318 480.251 39.3182 480.104C39.3134 480.044 39.3138 479.983 39.32 479.923C38.4687 476.6 37.7647 473.076 37.1386 469.719C36.3376 466.026 35.962 462.499 35.3967 458.721C34.8532 455.749 34.3657 452.768 33.8961 449.784C40.156 449.896 46.5461 449.847 52.8903 449.647C57.7501 449.691 62.6077 449.881 67.4697 449.956C67.4885 449.957 67.5069 449.957 67.5253 449.957C68.9699 449.957 69.0687 447.82 67.6245 447.7C62.1836 447.618 56.7405 447.342 51.2957 447.413C45.3629 447.547 39.4629 447.819 33.5223 447.376C33.162 445.049 32.8057 442.721 32.4393 440.395C32.4786 440.303 32.4996 440.211 32.5118 440.119C41.8918 439.584 51.3377 439.282 60.7386 439.718C69.8347 439.822 78.9273 439.377 88.0178 439.118L88.0165 439.117ZM108.855 363.161C108.824 363.996 108.78 364.83 108.72 365.663C108.702 365.891 108.687 366.119 108.667 366.346C108.661 366.417 108.656 366.485 108.654 366.556C108.648 366.6 108.643 366.646 108.639 366.695C108.597 367.165 108.553 367.638 108.502 368.108C108.389 369.149 108.259 370.187 108.111 371.223C107.815 373.264 107.442 375.294 107.007 377.309L107.005 377.32C106.085 381.539 104.875 385.692 103.43 389.761C103.333 390.037 103.234 390.313 103.132 390.589C101.685 394.55 99.9953 398.42 98.0933 402.184L98.0645 402.239C96.1892 405.938 94.0839 409.52 91.7666 412.96C89.7584 415.913 87.5784 418.765 85.206 421.451C84.8112 421.896 84.4045 422.338 83.9927 422.779C83.8562 422.829 83.7251 422.899 83.6066 423.004C83.4466 423.137 83.339 423.32 83.2848 423.519C82.019 424.833 80.6889 426.12 79.292 427.34L79.2435 427.382C79.2391 427.387 79.2325 427.391 79.2282 427.398C77.6576 428.747 76.0032 430.02 74.2669 431.173C74.0807 431.295 73.8909 431.412 73.7024 431.531C72.8835 431.712 72.0108 432.649 71.2575 432.905C69.624 433.698 67.9363 434.557 66.3273 435.487C65.984 435.268 65.5376 435.208 65.1445 435.433C65.1358 435.09 64.9832 434.792 64.7314 434.582C65.5988 433.229 66.5096 431.863 67.0928 430.358C67.3482 430.029 67.611 429.706 67.8589 429.371C71.5014 424.459 74.433 419.044 76.8251 413.425C79.0651 408.163 80.8721 402.72 82.3255 397.191C83.9026 391.198 85.0958 385.107 85.9659 378.973C86.3725 376.106 86.7083 373.227 86.982 370.343C86.9864 370.303 86.9907 370.265 86.9929 370.225C86.9929 370.219 86.9929 370.21 86.9951 370.203C86.9951 370.183 86.9973 370.163 86.9973 370.141C87.0017 370.108 87.0061 370.073 87.0109 370.037C87.1613 368.427 87.2937 366.817 87.4061 365.204C87.4411 364.701 87.4717 364.196 87.5032 363.692C88.2202 361.83 89.1262 360.176 90.2735 358.488C94.4582 352.651 99.9048 348.021 106.013 344.293C106.365 345.121 106.677 345.966 106.958 346.82C107.43 348.294 107.821 349.899 108.122 351.521C108.509 353.679 108.736 355.866 108.84 358.055C108.913 359.756 108.922 361.459 108.855 363.16L108.855 363.161Z" fill="#404040"/>
<path d="M54.359 426.272C49.8087 419.387 44.7543 412.846 40.0624 406.058C39.1853 404.849 37.3874 406.1 38.1915 407.332C43.694 415.106 49.3072 422.8 54.6952 430.655C54.9422 431.002 55.2671 431.145 55.5872 431.145C56.386 431.145 57.1498 430.248 56.5665 429.38C55.8132 428.355 55.0778 427.321 54.3598 426.272H54.359Z" fill="#404040"/>
<path d="M36.1124 400.933C33.5498 397.839 31.4936 394.386 29.4635 390.933C28.6791 389.979 27.5462 387.182 26.0264 388.349C25.103 389.195 26.1016 390.158 26.6757 390.858C27.2235 391.595 27.7071 392.373 28.1754 393.159C30.0905 396.533 32.211 399.835 34.7404 402.786C34.9927 402.988 35.2493 403.074 35.4885 403.074C36.4439 403.074 37.1176 401.705 36.1124 400.933Z" fill="#404040"/>
<path d="M20.8924 379.131C20.6515 379.295 20.4792 379.553 20.422 379.84C20.307 380.684 21.0625 381.343 21.414 382.049C21.655 382.399 21.9789 382.544 22.2994 382.544C23.0926 382.544 23.8617 381.654 23.2828 380.776C22.7262 379.926 22.1696 378.349 20.8924 379.131Z" fill="#404040"/>
<path d="M48.2089 375.245C50.2302 382.276 52.0368 389.381 54.6218 396.24C55.4704 398.258 55.8718 400.533 56.9859 402.41C57.2158 402.697 57.5184 402.828 57.8219 402.828C58.5647 402.828 59.2949 402.088 58.8743 401.204C57.2836 397.435 56.0865 393.434 54.7079 389.56C53.1684 384.918 51.9796 380.171 50.6346 375.473C49.2163 370.83 47.6414 366.23 46.1325 361.618C45.6135 360.209 43.548 360.951 43.9896 362.347C45.4102 366.639 46.8347 370.933 48.2089 375.245Z" fill="#404040"/>
<path d="M56.9995 402.437C56.9943 402.428 56.99 402.418 56.9845 402.409C56.9677 402.388 56.9484 402.374 56.9325 402.351C56.9557 402.38 56.9776 402.408 56.9995 402.437Z" fill="#404040"/>
<path d="M56.9112 402.323C56.9179 402.331 56.9241 402.339 56.9303 402.347C56.9174 402.328 56.9046 402.309 56.8918 402.289L56.9112 402.323Z" fill="#404040"/>
<path d="M37.6589 344.109C38.7323 347.022 39.5254 350.035 40.5415 352.967C40.9923 353.884 40.9945 355.333 42.0548 355.759C42.1689 355.797 42.2822 355.815 42.3919 355.815C43.2235 355.815 43.8645 354.81 43.332 354.047C42.6341 352.271 42.0885 350.431 41.5139 348.613C40.9486 346.866 40.4558 345.096 39.8017 343.38C39.5766 342.805 38.9688 342.467 38.3659 342.673C37.8027 342.863 37.4337 343.534 37.6589 344.109Z" fill="#404040"/>
<path d="M36.5882 335.8C37.3411 335.8 38.0949 335.025 37.6568 334.172C36.4089 331.437 35.4566 328.575 34.3565 325.778C33.8332 324.382 31.7633 325.098 32.2137 326.507C33.3824 329.431 34.3386 332.458 35.7019 335.299C35.931 335.652 36.2594 335.8 36.5882 335.8Z" fill="#404040"/>
<path d="M69.7114 338.686C70.0074 346.002 70.4315 353.307 70.2855 360.632C70.2348 370.553 70.7253 380.46 70.937 390.372C70.9798 391.094 71.5119 391.441 72.0493 391.441C72.6247 391.441 73.2058 391.043 73.1966 390.283C73.1017 385.536 72.9714 380.793 72.7615 376.051C72.4301 363.563 72.7305 351.073 71.9706 338.597C71.8757 337.095 69.6865 337.228 69.711 338.685L69.7114 338.686Z" fill="#404040"/>
<path d="M70.5946 330.471C71.2233 330.471 71.8529 329.988 71.7235 329.166C71.6771 328.965 71.664 328.755 71.6417 328.55C71.4585 325.581 71.5267 322.46 71.5735 319.34C71.4896 317.856 69.3047 317.949 69.3113 319.431C69.3091 322.8 69.1036 326.197 69.4923 329.546C69.627 330.184 70.1105 330.471 70.5946 330.471Z" fill="#404040"/>
<path d="M69.4652 305.747C69.5693 306.816 69.2002 308.135 69.9488 309.018C70.1691 309.234 70.4288 309.326 70.6855 309.326C71.424 309.326 72.1319 308.558 71.7711 307.754C71.6894 306.157 71.7336 304.553 71.7117 302.952C71.7095 302.335 71.1328 301.843 70.5364 301.865C68.7827 302.075 69.6462 304.538 69.4652 305.747Z" fill="#404040"/>
<path d="M92.1104 386.16C88.5142 393.79 85.7859 401.802 81.8342 409.262C80.4027 411.932 78.927 414.585 77.2878 417.137C76.782 418.274 74.6347 420.079 76.1279 421.166C76.3049 421.273 76.5074 421.324 76.7098 421.324C77.0959 421.324 77.4807 421.136 77.6809 420.784C78.896 418.709 80.2899 416.745 81.4494 414.638C85.2865 408.186 88.136 401.247 90.9679 394.318C92.0369 391.899 93.1108 389.482 94.182 387.065C94.7495 385.68 92.7286 384.828 92.1099 386.159L92.1104 386.16Z" fill="#404040"/>
<path d="M96.8788 377.755C95.4167 377.375 94.6809 379.478 96.1587 379.968C96.2781 379.999 96.3926 380.013 96.5015 380.013C97.7244 380.013 98.2356 378.208 96.8788 377.755Z" fill="#404040"/>
<path d="M102.079 358.452C101.493 358.282 100.84 358.628 100.678 359.222C100.064 361.46 99.4348 363.694 98.8537 365.94C98.2748 368.184 97.8175 370.451 97.3361 372.717C97.1153 373.338 97.4091 374.089 98.0763 374.266C98.1734 374.294 98.2744 374.307 98.3763 374.307C98.8673 374.307 99.367 373.993 99.4772 373.495C99.7378 372.324 99.9765 371.147 100.217 369.97C100.946 366.561 101.945 363.219 102.85 359.852C103.014 359.258 102.677 358.624 102.079 358.452Z" fill="#404040"/>
<path d="M74.6595 450.004C74.9201 450.152 75.2205 450.159 75.4925 450.068C76.1619 450.088 76.8313 450.115 77.5029 450.128C77.6703 450.129 77.8378 450.13 78.0052 450.13C80.0886 450.13 82.172 450.02 84.2511 449.92C84.8654 449.885 85.3468 449.33 85.307 448.719C85.2672 448.1 84.7215 447.627 84.1076 447.663C81.956 447.78 79.8001 447.866 77.6441 447.87C77.2996 447.912 76.8864 447.873 76.4623 447.831C75.4837 447.736 74.4475 447.641 74.05 448.584C73.8445 449.132 74.134 449.765 74.6595 450.004Z" fill="#404040"/>
<path d="M87.2198 450.117C87.8359 450.117 88.3112 449.498 88.2736 448.913C88.2539 448.619 88.1166 448.338 87.8958 448.144C87.6614 447.932 87.379 447.859 87.0694 447.859C86.4529 447.859 85.9781 448.478 86.0157 449.063C86.0354 449.357 86.1727 449.638 86.3935 449.832C86.6278 450.044 86.9103 450.117 87.2198 450.117Z" fill="#404040"/>
<path d="M71.1382 449.964C71.7547 449.964 72.2295 449.345 72.1919 448.76C72.1718 448.466 72.0349 448.185 71.8141 447.991C71.5798 447.779 71.2974 447.706 70.9878 447.706C70.3717 447.706 69.8965 448.325 69.9341 448.91C69.9537 449.204 70.091 449.485 70.3118 449.679C70.5458 449.889 70.8286 449.964 71.1378 449.964H71.1382Z" fill="#404040"/>
<path d="M358.833 137.033C358.993 137.583 359.271 138.228 359.9 138.321C360.448 138.849 360.983 139.388 361.524 139.918C362.202 140.59 362.885 141.261 363.559 141.946C363.813 142.213 364.104 142.325 364.384 142.325C365.234 142.325 365.977 141.289 365.251 140.444C363.74 138.935 362.24 137.413 360.678 135.953C359.92 135.246 358.584 136.026 358.833 137.033Z" fill="#404040"/>
<path d="M354.343 131.737C354.616 132.187 354.984 132.37 355.339 132.37C356.179 132.37 356.942 131.339 356.177 130.385C355.264 128.872 353.25 130.372 354.343 131.737H354.343Z" fill="#404040"/>
<path d="M108.717 257.984C108.949 258.095 109.153 258.144 109.333 258.144C110.454 258.144 110.689 256.245 111.275 255.41C113.535 251.209 116.559 247.447 119.643 243.826C120.548 242.649 118.784 241.281 117.858 242.437C116.38 244.116 105.965 256.682 108.717 257.984Z" fill="#404040"/>
<path d="M108.411 251.269C108.561 251.337 108.719 251.368 108.877 251.368C109.474 251.368 110.062 250.919 110.086 250.292C110.179 250.14 110.274 249.987 110.373 249.837C111.434 248.319 112.54 246.835 113.682 245.382C114.064 244.898 113.97 244.171 113.486 243.793C112.998 243.415 112.278 243.508 111.897 243.992C110.755 245.466 109.622 246.952 108.559 248.487C107.939 249.274 107.157 250.677 108.411 251.269Z" fill="#404040"/>
<path d="M355.743 328.007C353.689 329.873 351.641 331.751 349.531 333.554C348.122 334.713 346.706 335.877 345.129 336.803C344.497 337.022 343.872 337.496 344.013 338.25C344.219 338.909 344.601 339.158 345.07 339.158C346.285 339.158 348.081 337.488 348.895 336.969C351.8 334.711 354.495 332.191 357.221 329.721C358.317 328.713 356.879 327.064 355.743 328.007Z" fill="#404040"/>
<path d="M351.805 335.525C351.193 336.049 350.57 336.555 349.94 337.054C349.3 337.589 349.492 338.715 350.298 338.976C350.413 339.02 350.536 339.041 350.658 339.041C350.935 339.041 351.212 338.935 351.416 338.755C351.416 338.757 351.418 338.761 351.418 338.766C352.677 337.772 353.896 336.725 355.12 335.689C355.591 335.291 355.639 334.56 355.24 334.094C353.998 332.883 352.803 334.898 351.805 335.525Z" fill="#404040"/>
<path d="M340.479 91.7475C340.576 91.741 340.67 91.7323 340.765 91.7253C340.671 91.7275 340.576 91.7297 340.481 91.7319C340.481 91.7362 340.481 91.7432 340.479 91.7475Z" fill="#404040"/>
<path d="M368.297 91.4622C368.35 91.4557 368.401 91.4513 368.454 91.4447C368.6 91.4277 368.746 91.4106 368.892 91.3936C368.667 91.4084 368.441 91.4242 368.215 91.4403C368.243 91.4447 368.271 91.4517 368.297 91.4622Z" fill="#404040"/>
<path d="M320.212 90.7728C321.369 90.9162 322.532 91.0028 323.693 91.0688C324.824 91.1348 325.958 91.1816 327.086 91.2389C327.269 91.2223 327.495 91.2284 327.74 91.2428C327.994 91.3902 328.275 91.4299 328.55 91.3687C328.794 91.3635 329.037 91.3534 329.28 91.346H329.29C330.088 91.3211 330.886 91.2896 331.685 91.259C331.73 91.2612 331.776 91.2625 331.821 91.2642C332.387 91.2909 332.955 91.3128 333.518 91.3547C333.71 91.3679 333.904 91.3836 334.097 91.4011C334.454 91.4011 334.815 91.3989 335.175 91.3967C335.596 91.3923 336.021 91.3902 336.445 91.3923C337.576 91.3989 338.709 91.4011 339.84 91.3792H339.816C340.443 91.3661 341.068 91.3504 341.695 91.3329C342.29 91.3198 342.884 91.315 343.478 91.315C344.693 91.315 345.905 91.3526 347.116 91.4142C347.878 91.454 348.64 91.5025 349.402 91.5379C350.156 91.5734 350.909 91.5952 351.662 91.6284C351.653 91.6284 351.645 91.6263 351.635 91.6263C351.801 91.6328 351.967 91.6394 352.135 91.6464C352.263 91.6442 352.391 91.6442 352.519 91.642C353.109 91.6333 353.701 91.6153 354.291 91.5913C354.779 91.5716 355.265 91.5406 355.753 91.5183C356.244 91.4938 356.736 91.4785 357.229 91.4654C357.416 91.4601 357.604 91.4549 357.792 91.4496C358.232 91.4374 358.672 91.4256 359.112 91.4133C359.46 91.4042 359.808 91.3941 360.157 91.3858H360.135C360.188 91.3836 360.239 91.3836 360.292 91.3814H360.272C360.331 91.3814 360.393 91.3792 360.455 91.3771C360.578 91.3749 360.7 91.3727 360.824 91.3771C360.877 91.3792 360.93 91.3792 360.983 91.3814C360.993 91.3819 361.002 91.3827 361.012 91.3836C361.256 91.3652 361.498 91.3495 361.743 91.3351C362.392 91.2975 363.044 91.2621 363.691 91.2157C363.691 91.2157 363.689 91.2157 363.687 91.2179L363.963 91.1982C364.219 91.1772 364.476 91.158 364.731 91.1409C364.74 91.1405 364.75 91.1409 364.759 91.1418C365.215 91.1099 365.672 91.0845 366.128 91.0561C367.833 91.0574 369.539 91.0587 371.244 91.064C372.172 91.1934 373.469 91.259 373.524 90.0063C373.526 89.7698 373.45 89.5477 373.321 89.3623C373.289 89.1441 373.211 88.9089 373.071 88.6492C369.797 83.8335 368.555 78.035 366.002 72.8459C365.335 71.4433 364.723 69.7774 363.294 68.9913C362.414 68.6004 361.456 68.6292 360.502 68.6555C360.086 68.6686 359.673 68.6822 359.269 68.6599C358.83 68.6975 358.37 68.6708 357.911 68.6446C357.771 68.6363 357.632 68.6288 357.494 68.6223C357.367 68.0333 357.243 67.4435 357.113 66.8554C357.085 66.8331 357.065 66.8069 357.058 66.7715C357.05 66.7133 357.04 66.6565 357.03 66.5992L357.033 66.5966C357.02 66.5139 357.005 66.4335 356.99 66.3487C356.967 66.2013 356.942 66.0562 356.918 65.9088C356.886 65.7256 356.859 65.5424 356.834 65.3575C356.82 65.246 356.805 65.1345 356.791 65.023C356.786 64.9919 356.784 64.9605 356.779 64.9272C356.727 64.8927 356.671 64.8634 356.613 64.8372C356.604 64.8214 356.597 64.8031 356.587 64.7882C356.513 64.7869 356.439 64.7851 356.365 64.7834C356.051 64.7773 355.737 64.7711 355.426 64.7628C355.384 64.7602 355.342 64.7602 355.3 64.7602L355.272 64.7611C355.128 64.7567 354.983 64.751 354.839 64.7528C354.801 64.755 354.763 64.755 354.726 64.7528C354.72 64.7602 354.716 64.7694 354.71 64.7768C353.33 64.8122 351.951 64.8686 350.571 64.8861C350.35 64.8831 350.13 64.8818 349.91 64.8791C349.869 64.3908 349.772 63.9041 349.706 63.5373C349.428 62.2181 348.707 61.0127 347.542 60.304C344.964 58.2394 339.15 60.0976 339.417 63.7747C339.474 64.0427 339.461 64.3261 339.454 64.6068C338.633 64.5556 337.813 64.5022 336.994 64.4454C336.987 64.4319 336.985 64.4165 336.978 64.4034C336.925 64.4012 336.871 64.3991 336.819 64.3991C336.686 64.3969 336.556 64.3947 336.425 64.3925C336.313 64.3886 336.202 64.3851 336.092 64.3811C336.071 64.3802 336.051 64.3789 336.03 64.3785L335.955 64.3741L335.951 64.375C335.721 64.3641 335.493 64.3492 335.265 64.3396C335.197 64.3352 335.126 64.3308 335.058 64.3243C334.813 64.7637 334.804 65.4069 334.782 65.9281C334.667 66.8235 334.544 67.7163 334.414 68.607C333.381 68.5904 332.349 68.565 331.317 68.5685C329.888 68.5882 328.467 68.5685 327.04 68.6433C327.032 68.6428 327.026 68.6446 327.018 68.6441C327.007 68.6402 326.996 68.6345 326.984 68.6314C326.315 68.4303 325.78 68.8789 325.374 69.3581C323.028 72.4244 321.287 76.1487 319.562 79.6409C318.424 82.2341 315.235 86.9239 316.847 89.6342C317.729 90.4847 319.056 90.5975 320.212 90.7741L320.212 90.7728ZM358.018 70.9077C358.409 70.9164 358.811 70.9256 359.233 70.9208C359.591 70.9693 360.006 70.9361 360.43 70.9055C361.378 70.8346 362.365 70.7664 362.838 71.6256C365.967 76.9935 367.174 83.4772 370.5 88.7864C369.695 88.7659 368.89 88.7611 368.084 88.7707C365.707 88.7795 363.33 88.7956 360.954 88.8048C360.713 87.4136 360.476 86.0162 360.409 84.5969C360.095 82.2857 359.722 79.9811 359.31 77.6808C359.383 77.6979 359.455 77.7154 359.536 77.7272C359.817 77.7635 360.098 77.7884 360.381 77.8046C361.6 77.8749 362.832 77.784 364.053 77.7481C364.67 77.7149 365.124 77.0971 365.062 76.5073C364.986 75.7242 364.208 75.3937 363.507 75.5148C362.605 75.538 361.376 75.5869 360.411 75.5445C360.403 75.5397 360.394 75.5349 360.386 75.5275C360.331 75.531 360.275 75.5301 360.22 75.5314L360.24 75.5327C360.198 75.5327 360.156 75.5327 360.116 75.5323L360.134 75.5331C360.034 75.534 359.934 75.5436 359.836 75.5515C359.727 75.5607 359.618 75.5677 359.508 75.5703C359.403 75.5755 359.297 75.5825 359.19 75.5851C359.17 75.586 359.148 75.5873 359.128 75.586C359.095 75.5843 359.062 75.5777 359.035 75.5607C359.001 75.5388 358.98 75.5087 358.969 75.475C358.966 75.4706 358.967 75.468 358.967 75.4658C358.945 75.4514 358.929 75.4304 358.917 75.4055C358.913 75.3963 358.911 75.3875 358.91 75.3784C358.901 75.3823 358.894 75.3875 358.886 75.3919C358.877 75.3469 358.869 75.3014 358.86 75.2564C358.858 75.252 358.854 75.2454 358.849 75.2389C358.831 75.2035 358.827 75.1637 358.836 75.1261C358.565 73.7164 358.28 72.3103 357.987 70.9064C357.998 70.9064 358.007 70.9064 358.018 70.9068L358.018 70.9077ZM344.193 61.7652C346.226 61.2851 347.497 63.0327 347.646 64.859C345.68 64.845 343.715 64.824 341.753 64.737C341.747 64.2911 341.654 63.818 341.675 63.4083C341.893 62.3257 343.269 62.0109 344.193 61.7652ZM335.666 74.6679C335.94 73.2499 336.206 71.8258 336.44 70.3965C336.448 70.3856 336.46 70.3773 336.467 70.366C336.467 70.3594 336.47 70.3528 336.47 70.3463V70.3397C336.47 70.3397 336.471 70.3375 336.473 70.3375V70.3397C336.517 70.0656 336.573 69.7945 336.628 69.5234C336.62 69.4867 336.607 69.4517 336.596 69.4158C336.733 68.5143 336.854 67.6105 336.952 66.7055C337.584 66.7496 338.216 66.7924 338.85 66.8327C339.357 66.8751 339.866 66.9088 340.373 66.9381C343.392 67.1116 346.418 67.0867 349.446 67.1527C351.254 67.1637 353.06 67.074 354.867 67.0303C355.007 67.6713 355.152 68.3105 355.286 68.9537C355.304 69.0245 355.322 69.0971 355.337 69.1701C355.371 69.307 355.394 69.4456 355.417 69.5842C355.427 69.6502 355.438 69.7162 355.449 69.7822V69.7779C355.484 69.9965 355.529 70.2129 355.57 70.4315C355.593 70.5553 355.615 70.6812 355.637 70.8071C355.644 70.8115 355.653 70.8141 355.661 70.8185C356.334 74.197 356.952 77.5929 357.605 80.9688C358.123 83.5432 358.188 86.2195 358.639 88.8127C357.469 88.814 356.3 88.8127 355.13 88.8053C348.518 88.7956 341.906 88.7825 335.297 88.9447C334.077 88.9557 332.858 88.9819 331.639 89.0143C332.758 86.4687 333.504 83.8011 334.011 81.0711C334.524 78.9217 335.191 76.8278 335.666 74.6696V74.6679ZM320.868 82.0627C321.545 80.6916 322.221 79.3195 322.916 77.9585C323.211 77.9891 323.51 78.0057 323.81 78.0188C324.117 78.0319 324.424 78.0455 324.73 78.0782C324.774 78.0826 324.818 78.0866 324.862 78.0892C325 78.0971 325.138 78.0922 325.273 78.0643C326.049 78.1124 326.825 78.1631 327.602 78.2077C327.799 78.219 327.997 78.23 328.195 78.2404C329.679 78.2571 329.745 76.0683 328.261 75.9787C327.012 75.9135 325.763 75.8239 324.514 75.7522C324.423 75.7469 324.336 75.7574 324.249 75.7753C324.19 75.7692 324.13 75.7636 324.069 75.7574C324.782 74.4335 325.527 73.1271 326.325 71.8508C326.548 71.5285 326.723 71.2658 327.026 70.9072C327.036 70.9081 327.045 70.9103 327.054 70.9112C327.202 70.9195 327.353 70.9086 327.501 70.8749C328.845 70.8303 330.19 70.8259 331.535 70.8303C332.378 70.832 333.221 70.8504 334.063 70.8653C333.618 73.5184 333.057 76.147 332.267 78.7437C331.619 81.1008 331.299 83.5441 330.471 85.85C330.078 87.0441 329.482 88.1118 329.144 89.0164C325.7 88.9631 322.104 88.9132 318.688 88.1621C318.662 85.9641 320.018 84.018 320.869 82.0632L320.868 82.0627Z" fill="#404040"/>
<path d="M339.154 74.2335C340.587 74.3162 342.029 74.2576 343.463 74.2073C345.042 74.1522 346.62 74.1522 348.199 74.1592C348.814 74.1614 349.345 73.6896 349.364 73.0622C349.381 72.4571 348.882 71.8992 348.267 71.897C346.677 71.8895 345.093 71.8913 343.505 71.9459C342.08 71.9945 340.647 72.0535 339.222 71.9717C338.607 71.9363 338.074 72.4654 338.057 73.0687C338.038 73.6984 338.538 74.1986 339.154 74.234V74.2335Z" fill="#404040"/>
<path d="M211.608 486.842C211.669 486.835 211.73 486.827 211.79 486.82C211.717 486.822 211.643 486.825 211.569 486.828L211.609 486.842H211.608Z" fill="#404040"/>
<path d="M466.311 483.275H392.474C391.303 483.332 391.405 485.031 392.522 485.024H466.359C466.836 485.024 467.224 484.592 467.21 484.126C467.196 483.639 466.788 483.275 466.311 483.275Z" fill="#404040"/>
<path d="M316.607 120.759C319.758 120.641 322.909 120.522 326.06 120.404C328.038 120.331 330.016 120.257 331.993 120.182C333.057 120.142 334.122 120.094 335.187 120.062C335.285 120.101 335.39 120.124 335.502 120.124H335.511C335.991 120.117 336.377 119.716 336.377 119.239C336.36 118.723 336.367 118.208 336.362 117.692C336.353 116.988 336.346 116.284 336.339 115.582C336.326 114.056 336.312 112.529 336.295 111.003C336.281 109.784 336.26 108.567 336.259 107.347C336.272 107.287 336.279 107.225 336.278 107.161C336.273 106.693 335.872 106.28 335.395 106.296C335.235 106.301 335.076 106.306 334.915 106.311C331.848 106.413 328.78 106.509 325.711 106.61C322.418 106.718 319.124 106.823 315.829 106.931C313.39 107.011 310.949 107.102 308.509 107.17C308.419 107.172 308.335 107.191 308.253 107.219C307.796 107.224 307.376 107.611 307.386 108.081C307.386 108.117 307.388 108.155 307.388 108.191C307.388 108.201 307.389 108.211 307.389 108.22C307.429 110.073 307.49 111.924 307.54 113.777C307.591 115.698 307.658 117.621 307.698 119.542C307.697 119.56 307.697 119.578 307.698 119.596C307.699 119.653 307.699 119.711 307.703 119.769C307.707 119.901 307.74 120.027 307.792 120.141C307.792 120.162 307.787 120.182 307.788 120.203C307.799 120.672 308.194 121.056 308.661 121.056H308.683C308.697 121.056 308.711 121.056 308.725 121.054C309.522 121.034 310.319 120.995 311.115 120.965C312.946 120.895 314.775 120.829 316.606 120.76L316.607 120.759ZM309.379 117.111C309.306 114.373 309.218 111.636 309.156 108.898C311.866 108.809 314.575 108.722 317.285 108.634C320.546 108.526 323.806 108.421 327.065 108.316C329.547 108.235 332.031 108.155 334.514 108.074C334.522 109.703 334.549 111.333 334.565 112.962C334.578 114.32 334.594 115.68 334.606 117.037C334.609 117.469 334.61 117.901 334.613 118.333C334.276 118.347 333.94 118.359 333.603 118.371C332.075 118.43 330.546 118.486 329.018 118.544C326.005 118.657 322.994 118.77 319.981 118.882C317.571 118.971 315.162 119.063 312.752 119.152C311.648 119.193 310.543 119.242 309.438 119.279C309.42 118.556 309.398 117.833 309.379 117.111H309.379Z" fill="#404040"/>
</svg>
